<?xml version="1.0" encoding="utf-8"?>
<!-- Generator: Adobe Illustrator 19.0.0, SVG Export Plug-In . SVG Version: 6.00 Build 0)  -->
<svg version="1.1" id="Capa_1" xmlns="http://www.w3.org/2000/svg" xmlns:xlink="http://www.w3.org/1999/xlink" x="0px" y="0px"
	 viewBox="-54 212 501.9 370" style="enable-background:new -54 212 501.9 370;" xml:space="preserve">
<style type="text/css">
	.st0{clip-path:url(#SVGID_2_);fill:url(#SVGID_3_);}
	.st1{fill:#050206;}
	.st2{fill:#DDA156;}
	.st3{fill:#0C1511;}
	.st4{fill:#0E7754;}
	.st5{fill:none;stroke:#FFFFFF;stroke-width:0.498;stroke-linecap:round;stroke-miterlimit:10;}
	.st6{fill:#5D3217;}
	.st7{fill:#7C4F2F;}
	.st8{fill:#00352C;}
	.st9{fill:#E6E99D;}
	.st10{fill:none;stroke:#FFFFFF;stroke-width:1.486;stroke-linecap:round;stroke-miterlimit:10;}
	.st11{fill:#ABCCE0;}
	.st12{fill:#671820;}
	.st13{fill:none;stroke:#FFFFFF;stroke-width:1.493;stroke-linecap:round;stroke-miterlimit:10;}
	.st14{fill:#2B0D0C;}
	.st15{fill:#3A9742;}
	.st16{fill:none;stroke:#1C6636;stroke-width:0.594;stroke-linecap:round;stroke-miterlimit:10;}
	.st17{fill:none;stroke:#1C6636;stroke-width:0.355;stroke-linecap:round;stroke-miterlimit:10;}
	.st18{fill:#FFFFFF;}
	.st19{fill:none;stroke:#ACACAC;stroke-width:0.806;stroke-miterlimit:10;}
	.st20{fill:#88C0E4;}
	.st21{fill:#208BB6;}
	.st22{fill:#63371C;}
	.st23{opacity:0.2;}
	.st24{clip-path:url(#SVGID_5_);fill:#0A0910;}
	.st25{fill:#D78C30;}
	.st26{fill:#E9E9E8;}
	.st27{fill:none;stroke:#ACACAC;stroke-width:0.791;stroke-miterlimit:10;}
	.st28{clip-path:url(#SVGID_7_);fill:#0A0910;}
	.st29{fill:#C4484E;}
	.st30{fill:#270F0B;}
	.st31{fill:#DCDCDC;}
	.st32{fill:#A6A19F;}
	.st33{fill:none;stroke:#C4484E;stroke-width:0.875;stroke-miterlimit:10;}
	.st34{fill:#E0AB87;}
	.st35{fill:#67503D;}
	.st36{fill:#84644B;}
	.st37{opacity:0.1;}
	.st38{clip-path:url(#SVGID_9_);fill:#010002;}
	.st39{fill:#CC6A33;}
	.st40{fill:#CD771E;}
	.st41{fill:none;stroke:#B76617;stroke-width:0.112;stroke-miterlimit:10;}
	.st42{fill:#010002;}
	.st43{opacity:0.54;}
	.st44{clip-path:url(#SVGID_11_);fill:#FFFFFF;}
	.st45{clip-path:url(#SVGID_13_);fill:#FFFFFF;}
	.st46{fill:#AB7C5A;}
	.st47{fill:#BD8865;}
	.st48{fill:#272626;}
	.st49{fill:#5E5C5C;}
	.st50{fill:#0F7A6F;}
	.st51{clip-path:url(#SVGID_15_);fill:#010002;}
	.st52{clip-path:url(#SVGID_17_);fill:#FFFFFF;}
	.st53{clip-path:url(#SVGID_19_);fill:#FFFFFF;}
	.st54{clip-path:url(#SVGID_21_);fill:#FFFFFF;}
	.st55{clip-path:url(#SVGID_24_);fill:#FFFFFF;}
	.st56{fill:#8B2A32;}
	.st57{fill:#8F5E3B;}
	.st58{clip-path:url(#SVGID_26_);fill:url(#SVGID_27_);}
	.st59{fill:#535461;}
	.st60{fill:#229992;}
	.st61{fill:#CBDCE9;}
	.st62{fill:none;stroke:#575859;stroke-width:0.796;stroke-miterlimit:10;}
	.st63{fill:#575859;}
	.st64{fill:none;stroke:#575859;stroke-width:9.900000e-002;stroke-miterlimit:10;}
	.st65{fill:#C3484E;}
	.st66{fill:#AB353F;}
	.st67{fill:#E9E7E6;}
	.st68{fill:none;stroke:#7C4F2F;stroke-width:1.523;stroke-miterlimit:10;}
	.st69{fill:none;stroke:#7C4F2F;stroke-width:1.558;stroke-miterlimit:10;}
	.st70{opacity:0.3;}
	.st71{clip-path:url(#SVGID_29_);fill:#575859;}
	.st72{clip-path:url(#SVGID_31_);fill:#575859;}
	.st73{clip-path:url(#SVGID_33_);fill:#2F2F2F;}
	.st74{clip-path:url(#SVGID_35_);fill:#2F2F2F;}
	.st75{clip-path:url(#SVGID_37_);fill:#2F2F2F;}
	.st76{fill:#BEBDBD;}
	.st77{fill:#168D85;}
	.st78{fill:#44423F;}
	.st79{fill:#222E41;}
	.st80{clip-path:url(#SVGID_39_);fill:#87B2CF;}
	.st81{fill:#87B2CF;}
	.st82{fill:#C6885B;}
	.st83{fill:#625245;}
	.st84{fill:#4F4036;}
	.st85{fill:#393356;}
	.st86{fill:#4A446C;}
	.st87{fill:#6FB2C1;}
	.st88{fill:#9B6042;}
	.st89{opacity:0.7;}
	.st90{clip-path:url(#SVGID_41_);fill:#FFFFFF;}
	.st91{clip-path:url(#SVGID_43_);fill:#FFFFFF;}
	.st92{fill:#5E5E5E;}
	.st93{opacity:0.25;}
	.st94{clip-path:url(#SVGID_45_);fill:#FFFFFF;}
	.st95{clip-path:url(#SVGID_47_);fill:#FFFFFF;}
	.st96{fill:#97C5CD;}
	.st97{clip-path:url(#SVGID_49_);fill:#B7D7DC;}
	.st98{clip-path:url(#SVGID_51_);fill:#B7D7DC;}
	.st99{fill:#545A5A;}
	.st100{fill:#ECC749;}
	.st101{fill:#525360;}
	.st102{fill:#A1A2A8;}
	.st103{fill:#2F2F2F;}
	.st104{fill:#369D99;}
	.st105{fill:#35427F;}
</style>
<title>B5C677ED-397D-495B-889B-EB8946278BC1</title>
<desc>Created with sketchtool.</desc>
<g>
	<g>
		<g>
			<defs>
				<path id="SVGID_1_" d="M390.5,260.1H253.3c-7.5,0-13.6,5.3-13.6,11.9v264.6c0,6.6,6.1,11.9,13.6,11.9h137.2
					c7.5,0,13.6-5.3,13.6-11.9V272C404.1,265.4,398,260.1,390.5,260.1L390.5,260.1"/>
			</defs>
			<clipPath id="SVGID_2_">
				<use xlink:href="#SVGID_1_"  style="overflow:visible;"/>
			</clipPath>
			
				<linearGradient id="SVGID_3_" gradientUnits="userSpaceOnUse" x1="-796.2051" y1="44.2668" x2="-795.2051" y2="44.2668" gradientTransform="matrix(0 -288.4097 -288.4097 0 12995.832 -229129.8906)">
				<stop  offset="0" style="stop-color:#404040"/>
				<stop  offset="0.54" style="stop-color:#1F1F1F"/>
				<stop  offset="1" style="stop-color:#1A1A1A"/>
			</linearGradient>
			<rect x="146.7" y="215" class="st0" width="164.3" height="288.4"/>
		</g>
	</g>
	<g>
		
			<rect x="22.1" y="340.8" transform="matrix(-0.993 -0.1184 0.1184 -0.993 79.3957 711.8845)" class="st1" width="77.5" height="25.6"/>
		
			<rect x="25.7" y="310.7" transform="matrix(-0.993 -0.1184 0.1184 -0.993 90.1469 652.3211)" class="st2" width="77.5" height="25.6"/>
		<path class="st3" d="M65.1,325.5l0.4-3.3c0,0-0.3-0.1-0.7-0.1s-0.7,0-0.7,0l-0.4,3.3c-0.2,1.6-2.3,2.4-2.5,4.2l-1.1,8.9
			c0,0,0.6,0.4,2.6,0.6s2.7,0,2.7,0l1.1-8.9C66.7,328.4,64.9,327.1,65.1,325.5"/>
		<rect x="62" y="331.1" transform="matrix(-0.993 -0.1184 0.1184 -0.993 87.9927 673.6974)" class="st4" width="4" height="6.3"/>
		<path class="st5" d="M62.9,327.9c-0.5,0.5-0.8,1.2-0.8,1.9"/>
		<path class="st3" d="M29.7,321.3l0.4-3.3c0,0-0.3-0.1-0.7-0.1s-0.7,0-0.7,0l-0.4,3.3c-0.2,1.6-2.3,2.4-2.5,4.2l-1.1,8.9
			c0,0,0.6,0.4,2.6,0.6s2.7,0,2.7,0l1.1-8.9C31.3,324.2,29.5,322.9,29.7,321.3"/>
		<rect x="26.6" y="326.9" transform="matrix(-0.993 -0.1184 0.1184 -0.993 17.9315 661.136)" class="st4" width="4" height="6.3"/>
		<path class="st5" d="M27.5,323.7c-0.5,0.5-0.8,1.2-0.8,1.9"/>
		<path class="st3" d="M35.6,322l0.4-3.3c0,0-0.3-0.1-0.7-0.1s-0.7,0-0.7,0l-0.4,3.3c-0.2,1.6-2.3,2.4-2.5,4.2l-1.1,8.9
			c0,0,0.6,0.4,2.6,0.6s2.7,0,2.7,0l1.1-8.9C37.2,324.9,35.4,323.6,35.6,322"/>
		
			<rect x="32.5" y="327.6" transform="matrix(-0.993 -0.1184 0.1184 -0.993 29.6083 663.2296)" class="st4" width="4" height="6.3"/>
		<path class="st5" d="M33.4,324.4c-0.5,0.5-0.8,1.2-0.8,1.9"/>
		<path class="st3" d="M41.5,322.7l0.4-3.3c0,0-0.3-0.1-0.7-0.1s-0.7,0-0.7,0l-0.4,3.3c-0.2,1.6-2.3,2.4-2.5,4.2l-1,8.8
			c0,0,0.6,0.4,2.6,0.6s2.7,0,2.7,0l1.1-8.9C43.1,325.6,41.3,324.3,41.5,322.7"/>
		<rect x="38.4" y="328.3" transform="matrix(-0.993 -0.1184 0.1184 -0.993 41.285 665.3232)" class="st4" width="4" height="6.3"/>
		<path class="st5" d="M39.3,325.1c-0.5,0.5-0.8,1.2-0.8,1.9"/>
		<path class="st3" d="M47.4,323.4l0.4-3.3c0,0-0.3-0.1-0.7-0.1s-0.7,0-0.7,0l-0.4,3.3c-0.2,1.6-2.3,2.4-2.5,4.2l-1.1,8.9
			c0,0,0.6,0.4,2.6,0.6s2.7,0,2.7,0l1.1-8.9C49,326.3,47.2,325,47.4,323.4"/>
		<rect x="44.3" y="329" transform="matrix(-0.993 -0.1184 0.1184 -0.993 52.9621 667.4168)" class="st4" width="4" height="6.3"/>
		<path class="st5" d="M45.2,325.8c-0.5,0.5-0.8,1.2-0.8,1.9"/>
		<path class="st3" d="M53.3,324.1l0.4-3.3c0,0-0.3-0.1-0.7-0.1s-0.7,0-0.7,0l-0.4,3.3c-0.2,1.6-2.3,2.4-2.5,4.2l-1.1,8.9
			c0,0,0.6,0.4,2.6,0.6s2.7,0,2.7,0l1.1-8.9C54.9,327,53.1,325.7,53.3,324.1"/>
		
			<rect x="50.2" y="329.7" transform="matrix(-0.993 -0.1184 0.1184 -0.993 64.6389 669.5104)" class="st4" width="4" height="6.3"/>
		<path class="st5" d="M51.1,326.5c-0.5,0.5-0.8,1.2-0.8,1.9"/>
		<path class="st3" d="M59.2,324.8l0.4-3.3c0,0-0.3-0.1-0.7-0.1s-0.7,0-0.7,0l-0.4,3.3c-0.2,1.6-2.3,2.4-2.5,4.2l-1.1,8.9
			c0,0,0.6,0.4,2.6,0.6s2.7,0,2.7,0l1.1-8.9C60.8,327.7,59,326.4,59.2,324.8"/>
		<rect x="56.1" y="330.4" transform="matrix(-0.993 -0.1184 0.1184 -0.993 76.3158 671.604)" class="st4" width="4" height="6.3"/>
		<path class="st5" d="M57,327.2c-0.5,0.5-0.8,1.2-0.8,1.9"/>
		<path class="st3" d="M71,326.2l0.4-3.3c0,0-0.3-0.1-0.7-0.1s-0.7,0-0.7,0l-0.4,3.3c-0.2,1.6-2.3,2.4-2.5,4.2l-1.1,8.9
			c0,0,0.6,0.4,2.6,0.6s2.7,0,2.7,0l1.1-8.9C72.6,329.1,70.8,327.8,71,326.2"/>
		
			<rect x="67.9" y="331.8" transform="matrix(-0.993 -0.1184 0.1184 -0.993 99.6695 675.7911)" class="st4" width="4" height="6.3"/>
		<path class="st5" d="M68.8,328.6c-0.5,0.5-0.8,1.2-0.8,1.9"/>
		<path class="st3" d="M76.9,326.9l0.4-3.3c0,0-0.3-0.1-0.7-0.1s-0.7,0-0.7,0l-0.4,3.3c-0.2,1.6-2.3,2.4-2.5,4.2l-1.1,8.9
			c0,0,0.6,0.4,2.6,0.6s2.7,0,2.7,0l1.1-8.9C78.5,329.8,76.7,328.5,76.9,326.9"/>
		
			<rect x="73.8" y="332.5" transform="matrix(-0.993 -0.1184 0.1184 -0.993 111.3464 677.8846)" class="st4" width="4" height="6.3"/>
		<path class="st5" d="M74.7,329.4c-0.5,0.5-0.8,1.2-0.8,1.9"/>
		<path class="st3" d="M82.8,327.6l0.4-3.3c0,0-0.3-0.1-0.7-0.1s-0.7,0-0.7,0l-0.4,3.3c-0.2,1.6-2.3,2.4-2.5,4.2l-1.1,8.9
			c0,0,0.6,0.4,2.6,0.6s2.7,0,2.7,0l1.1-8.9C84.4,330.5,82.6,329.2,82.8,327.6"/>
		
			<rect x="79.7" y="333.2" transform="matrix(-0.993 -0.1184 0.1184 -0.993 123.0233 679.9783)" class="st4" width="4" height="6.3"/>
		<path class="st5" d="M80.6,330.1c-0.5,0.5-0.8,1.2-0.8,1.9"/>
		<path class="st3" d="M88.7,328.3l0.4-3.3c0,0-0.3-0.1-0.7-0.1s-0.7,0-0.7,0l-0.4,3.3c-0.2,1.6-2.3,2.4-2.5,4.2l-1.1,8.9
			c0,0,0.6,0.4,2.6,0.6s2.7,0,2.7,0l1.1-8.9C90.3,331.2,88.5,329.9,88.7,328.3"/>
		
			<rect x="85.6" y="333.9" transform="matrix(-0.993 -0.1184 0.1184 -0.993 134.7001 682.0718)" class="st4" width="4" height="6.3"/>
		<path class="st5" d="M86.5,330.8c-0.5,0.5-0.8,1.2-0.8,1.9"/>
		<path class="st3" d="M94.6,329l0.4-3.3c0,0-0.3-0.1-0.7-0.1s-0.7,0-0.7,0l-0.4,3.3c-0.2,1.6-2.3,2.4-2.5,4.2l-1.1,8.9
			c0,0,0.6,0.4,2.6,0.6s2.7,0,2.7,0l1.1-8.9C96.2,331.9,94.4,330.6,94.6,329"/>
		
			<rect x="91.5" y="334.6" transform="matrix(-0.993 -0.1184 0.1184 -0.993 146.377 684.1655)" class="st4" width="4" height="6.3"/>
		<path class="st5" d="M92.4,331.5c-0.5,0.5-0.8,1.2-0.8,1.9"/>
		<path class="st3" d="M100.5,329.7l0.4-3.3c0,0-0.3-0.1-0.7-0.1s-0.7,0-0.7,0l-0.4,3.3c-0.2,1.6-2.3,2.4-2.5,4.2l-1,8.8
			c0,0,0.6,0.4,2.6,0.6s2.7,0,2.7,0l1.1-8.9C102.1,332.6,100.3,331.4,100.5,329.7"/>
		
			<rect x="97.4" y="335.3" transform="matrix(-0.993 -0.1184 0.1184 -0.993 158.0539 686.2589)" class="st4" width="4" height="6.3"/>
		<path class="st5" d="M98.3,332.2c-0.5,0.5-0.8,1.2-0.8,1.9"/>
		<path class="st3" d="M31.8,303.9l0.4-3.3c0,0-0.3-0.1-0.7-0.1s-0.7,0-0.7,0l-0.4,3.3c-0.2,1.6-2.3,2.4-2.5,4.2l-1.1,8.9
			c0,0,0.7,0.4,2.6,0.6c2,0.2,2.7,0,2.7,0l1.1-8.9C33.4,306.8,31.6,305.5,31.8,303.9"/>
		<rect x="28.6" y="309.5" transform="matrix(-0.993 -0.1184 0.1184 -0.993 23.978 626.676)" class="st4" width="4" height="6.3"/>
		<path class="st5" d="M29.6,306.3c-0.5,0.5-0.8,1.2-0.8,1.9"/>
		<path class="st3" d="M37.7,304.6l0.4-3.3c0,0-0.3-0.1-0.7-0.1s-0.7,0-0.7,0l-0.4,3.3c-0.2,1.6-2.3,2.4-2.5,4.2l-1.1,8.9
			c0,0,0.7,0.4,2.6,0.6c2,0.2,2.7,0,2.7,0l1.1-8.9C39.3,307.5,37.5,306.2,37.7,304.6"/>
		
			<rect x="34.5" y="310.2" transform="matrix(-0.993 -0.1184 0.1184 -0.993 35.6548 628.7696)" class="st4" width="4" height="6.3"/>
		<path class="st5" d="M35.5,307c-0.5,0.5-0.8,1.2-0.8,1.9"/>
		<path class="st3" d="M43.6,305.3L44,302c0,0-0.3-0.1-0.7-0.1s-0.7,0-0.7,0l-0.4,3.3c-0.2,1.6-2.3,2.4-2.5,4.2l-1.1,8.9
			c0,0,0.7,0.4,2.6,0.6c2,0.2,2.7,0,2.7,0L45,310C45.2,308.2,43.4,306.9,43.6,305.3"/>
		
			<rect x="40.4" y="310.9" transform="matrix(-0.993 -0.1184 0.1184 -0.993 47.3319 630.8632)" class="st4" width="4" height="6.3"/>
		<path class="st5" d="M41.4,307.7c-0.5,0.5-0.8,1.2-0.8,1.9"/>
		<path class="st3" d="M49.5,306l0.4-3.3c0,0-0.3-0.1-0.7-0.1s-0.7,0-0.7,0l-0.4,3.3c-0.2,1.6-2.3,2.4-2.5,4.2l-1.1,8.9
			c0,0,0.7,0.4,2.6,0.6c2,0.2,2.7,0,2.7,0l1.1-8.9C51.1,308.9,49.3,307.6,49.5,306"/>
		
			<rect x="46.3" y="311.6" transform="matrix(-0.993 -0.1184 0.1184 -0.993 59.0085 632.9568)" class="st4" width="4" height="6.3"/>
		<path class="st5" d="M47.3,308.4c-0.5,0.5-0.8,1.2-0.8,1.9"/>
		<path class="st3" d="M55.4,306.7l0.4-3.3c0,0-0.3-0.1-0.7-0.1s-0.7,0-0.7,0l-0.4,3.3c-0.2,1.6-2.3,2.4-2.5,4.2l-1.1,8.9
			c0,0,0.7,0.4,2.6,0.6c2,0.2,2.7,0,2.7,0l1.1-8.9C57,309.6,55.2,308.3,55.4,306.7"/>
		
			<rect x="52.2" y="312.3" transform="matrix(-0.993 -0.1184 0.1184 -0.993 70.6856 635.0505)" class="st4" width="4" height="6.3"/>
		<path class="st5" d="M53.2,309.1c-0.5,0.5-0.8,1.2-0.8,1.9"/>
		<path class="st3" d="M61.3,307.4l0.4-3.3c0,0-0.3-0.1-0.7-0.1s-0.7,0-0.7,0l-0.4,3.3c-0.2,1.6-2.3,2.4-2.5,4.2l-1.1,8.9
			c0,0,0.7,0.4,2.6,0.6c2,0.2,2.7,0,2.7,0l1.1-8.9C62.9,310.3,61.1,309,61.3,307.4"/>
		<rect x="58.2" y="313" transform="matrix(-0.993 -0.1184 0.1184 -0.993 82.5588 637.1794)" class="st4" width="4" height="6.3"/>
		<path class="st5" d="M59.1,309.8c-0.5,0.5-0.8,1.2-0.8,1.9"/>
		<path class="st3" d="M73.1,308.8l0.4-3.3c0,0-0.3-0.1-0.7-0.1s-0.7,0-0.7,0l-0.4,3.3c-0.2,1.6-2.3,2.4-2.5,4.2l-1.1,8.9
			c0,0,0.7,0.4,2.6,0.6c2,0.2,2.7,0,2.7,0l1.1-8.9C74.7,311.7,72.9,310.4,73.1,308.8"/>
		<rect x="70" y="314.4" transform="matrix(-0.993 -0.1184 0.1184 -0.993 105.9125 641.3666)" class="st4" width="4" height="6.3"/>
		<path class="st5" d="M70.9,311.2c-0.5,0.5-0.8,1.2-0.8,1.9"/>
		<path class="st3" d="M79,309.5l0.4-3.3c0,0-0.3-0.1-0.7-0.1s-0.7,0-0.7,0l-0.4,3.3c-0.2,1.6-2.3,2.4-2.5,4.2l-1.1,8.9
			c0,0,0.7,0.4,2.6,0.6c2,0.2,2.7,0,2.7,0l1.1-8.9C80.6,312.4,78.8,311.1,79,309.5"/>
		
			<rect x="75.9" y="315.1" transform="matrix(-0.993 -0.1184 0.1184 -0.993 117.5894 643.4602)" class="st4" width="4" height="6.3"/>
		<path class="st5" d="M76.8,311.9c-0.5,0.5-0.8,1.2-0.8,1.9"/>
		<path class="st3" d="M84.9,310.2l0.4-3.3c0,0-0.3-0.1-0.7-0.1s-0.7,0-0.7,0l-0.4,3.3c-0.2,1.6-2.3,2.4-2.5,4.2l-1.1,8.9
			c0,0,0.7,0.4,2.6,0.6c2,0.2,2.7,0,2.7,0l1.1-8.9C86.5,313.1,84.7,311.8,84.9,310.2"/>
		
			<rect x="81.8" y="315.8" transform="matrix(-0.993 -0.1184 0.1184 -0.993 129.2664 645.5538)" class="st4" width="4" height="6.3"/>
		<path class="st5" d="M82.7,312.7c-0.5,0.5-0.8,1.2-0.8,1.9"/>
		<path class="st3" d="M90.8,310.9l0.4-3.3c0,0-0.3-0.1-0.7-0.1s-0.7,0-0.7,0l-0.4,3.3c-0.2,1.6-2.3,2.4-2.5,4.2l-1.1,8.9
			c0,0,0.6,0.4,2.6,0.6s2.7,0,2.7,0l1.1-8.9C92.4,313.8,90.6,312.5,90.8,310.9"/>
		
			<rect x="87.7" y="316.5" transform="matrix(-0.993 -0.1184 0.1184 -0.993 140.9431 647.6474)" class="st4" width="4" height="6.3"/>
		<path class="st5" d="M88.6,313.4c-0.5,0.5-0.8,1.2-0.8,1.9"/>
		<path class="st3" d="M96.7,311.6l0.4-3.3c0,0-0.3-0.1-0.7-0.1s-0.7,0-0.7,0l-0.4,3.3c-0.2,1.6-2.3,2.4-2.5,4.2l-1.1,8.9
			c0,0,0.6,0.4,2.6,0.6s2.7,0,2.7,0l1.1-8.9C98.3,314.5,96.5,313.2,96.7,311.6"/>
		<rect x="93.6" y="317.2" transform="matrix(-0.993 -0.1184 0.1184 -0.993 152.62 649.7408)" class="st4" width="4" height="6.3"/>
		<path class="st5" d="M94.5,314.1c-0.5,0.5-0.8,1.2-0.8,1.9"/>
		<path class="st3" d="M102.6,312.3l0.4-3.3c0,0-0.3-0.1-0.7-0.1s-0.7,0-0.7,0l-0.4,3.3c-0.2,1.6-2.3,2.4-2.5,4.2l-1.1,8.9
			c0,0,0.6,0.4,2.6,0.6s2.7,0,2.7,0l1.1-8.9C104.2,315.2,102.4,313.9,102.6,312.3"/>
		
			<rect x="99.5" y="317.9" transform="matrix(-0.993 -0.1184 0.1184 -0.993 164.2968 651.8344)" class="st4" width="4" height="6.3"/>
		<path class="st5" d="M100.4,314.8c-0.5,0.5-0.8,1.2-0.8,1.9"/>
		
			<rect x="25.8" y="320.5" transform="matrix(-0.993 -0.1184 0.1184 -0.993 90.8915 649.4791)" class="st6" width="77.9" height="3.1"/>
		
			<rect x="23.7" y="338.2" transform="matrix(-0.993 -0.1184 0.1184 -0.993 84.6095 684.5094)" class="st6" width="77.9" height="3.1"/>
		
			<rect x="20.4" y="363.9" transform="matrix(-0.993 -0.1184 0.1184 -0.993 74.8071 738.7238)" class="st7" width="77.9" height="6.5"/>
		<path class="st6" d="M41.7,364.5l-17.8-2.1c-0.2,0-0.4-0.2-0.3-0.4c0-0.2,0.2-0.4,0.4-0.3l17.8,2.1c0.2,0,0.4,0.2,0.3,0.4
			C42.1,364.4,41.9,364.5,41.7,364.5"/>
		<path class="st6" d="M75,368.8l-17.8-2.1c-0.2,0-0.4-0.2-0.3-0.4s0.2-0.4,0.4-0.3l17.8,2.1c0.2,0,0.4,0.2,0.3,0.4
			C75.4,368.7,75.2,368.8,75,368.8"/>
		<path class="st6" d="M48.3,366.9l-12.8-1.5c-0.2,0-0.4-0.2-0.3-0.4c0-0.2,0.2-0.4,0.4-0.3l12.8,1.5c0.2,0,0.4,0.2,0.3,0.4
			C48.7,366.8,48.5,366.9,48.3,366.9"/>
		<path class="st6" d="M96.1,372.6l-12.8-1.5c-0.2,0-0.4-0.2-0.3-0.4c0-0.2,0.2-0.4,0.4-0.3l12.8,1.5c0.2,0,0.4,0.2,0.3,0.4
			C96.5,372.5,96.3,372.6,96.1,372.6"/>
		<path class="st8" d="M67.1,324.5l1.2-10c0,0-1-0.3-2-0.4c-1.1-0.1-2.1-0.1-2.1-0.1L63,324c-0.6,4.8-6.8,7.2-7.4,12.4L52.4,363
			c0,0,1.9,1.2,7.8,1.9c5.9,0.7,8,0,8,0l3.2-26.6C72,333.1,66.5,329.3,67.1,324.5"/>
		
			<rect x="57.8" y="341.1" transform="matrix(-0.993 -0.1184 0.1184 -0.993 85.6939 706.0598)" class="st9" width="12" height="18.8"/>
		<path class="st10" d="M60.5,331.8c-1.4,1.6-2.3,3.6-2.5,5.7"/>
		<path class="st11" d="M38.6,351l-1.1,9l-4.5-0.5c-0.5-0.1-1,0.3-1.1,0.8s0.3,1,0.8,1.1l11.2,1.3c0.5,0.1,1-0.3,1.1-0.8
			s-0.3-1-0.8-1.1l-4.8-0.6l1.1-8.9h0.3l0,0c1.2,0,2.4-0.3,3.6-0.8c1.2-0.5,1.9-1.1,2.8-2c1-0.8,1.7-1.8,2.3-2.8
			c0.6-1.1,1-2.3,1.2-3.6c0.2-2.1,0-4.1-0.2-6c-0.1-0.5-0.1-1-0.2-1.5l-0.1-1.4l-16.7-2l-0.5,1.3c-0.2,0.5-0.3,1-0.5,1.5
			c-0.7,1.8-1.3,3.7-1.6,5.8c-0.1,1.2-0.1,2.5,0.2,3.7s0.8,2.3,1.5,3.3c1.4,2,3.1,3.5,5.4,4.1"/>
		<path class="st12" d="M33.6,340C33.6,340,33.6,340.1,33.6,340c-0.4,3.8,1.6,7.3,5.2,8.3c0.4,0.1,0.8,0.2,1.1,0.2s0.8,0.1,1.2,0.1
			c3.7-0.1,6.5-3.1,6.9-6.8l0,0L33.6,340z"/>
		<path class="st13" d="M46.2,343.6c0.7-1.8,1.1-3.7,1.1-5.6"/>
		<path class="st11" d="M81.5,355.8l-1.1,9l-4.5-0.5c-0.5-0.1-1,0.3-1.1,0.8s0.3,1,0.8,1.1l11.2,1.3c0.5,0.1,1-0.3,1.1-0.8
			s-0.3-1-0.8-1.1l-4.8-0.6l1.1-8.9h0.3l0,0c1.2,0,2.4-0.3,3.6-0.8c1.2-0.5,1.9-1.1,2.8-2c1-0.8,1.7-1.8,2.3-2.8
			c0.6-1.1,1-2.3,1.2-3.6c0.2-2.1,0-4.1-0.2-6c-0.1-0.5-0.1-1-0.2-1.5l-0.1-1.4l-16.7-2l-0.5,1.3c-0.2,0.5-0.3,1-0.5,1.5
			c-0.7,1.8-1.3,3.7-1.6,5.8c-0.1,1.2-0.1,2.5,0.2,3.7s0.8,2.3,1.5,3.3c1.4,2,3.1,3.5,5.4,4.1"/>
		<path class="st12" d="M76.5,344.8C76.5,344.9,76.5,344.9,76.5,344.8c-0.4,3.8,1.6,7.3,5.2,8.3c0.4,0.1,0.8,0.2,1.1,0.2
			s0.8,0.1,1.2,0.1c3.7-0.1,6.5-3.1,6.9-6.8l0,0L76.5,344.8z"/>
		<path class="st13" d="M89.1,348.4c0.7-1.8,1.1-3.7,1.1-5.6"/>
		<path class="st14" d="M21.3,362.1c0-0.9,0-1.8,0.2-2.6c0.2-0.9,0.4-1.8,1.1-2.4c0.3-0.3,0.8-0.6,1.3-0.6s1,0.1,1.4,0.5
			c0.8,0.7,0.9,1.9,0.2,2.7l0,0h-0.1c-0.5,0.2-1,0.1-1.4-0.2c-0.4-0.2-0.7-0.6-0.9-1c-0.4-0.9-0.3-1.9,0.1-2.7
			c0.4-0.8,1.1-1.5,1.9-1.9c0.8-0.4,1.7-0.7,2.5-0.8c1.7-0.2,3.4,0,4.9-0.2s3.2-0.8,3.9-2.3h0.1c-0.2,0.8-0.8,1.5-1.5,2
			s-1.5,0.8-2.4,1c-1.7,0.3-3.4,0.2-4.9,0.4c-1.5,0.2-3.1,0.7-3.8,2.1c-0.4,0.6-0.5,1.4-0.2,2.1c0.3,0.6,1,1.2,1.6,0.9l-0.1,0.1
			c0.5-0.5,0.5-1.5-0.1-2c-0.3-0.3-0.7-0.4-1-0.4c-0.4,0-0.8,0.2-1.1,0.4c-0.6,0.6-0.9,1.4-1.1,2.2
			C21.5,360.4,21.4,361.3,21.3,362.1L21.3,362.1z"/>
		<path class="st15" d="M25.3,353.7c-1.2-1.2-1-3.8-0.2-5.1c0.2,0.2,0.5,0.4,0.6,0.6c0.3-1.3,1.1-2.6,2.2-3.5c0.1,0.3,0.3,0.6,0.4,1
			c1.3-1.2,4.2-1.3,4.2-1.3s0.3,2.5-1.7,5.3c0.4,0,0.7,0.1,1.1,0.1c0.1,0-0.6,1-0.6,1.1c-0.5,0.6-1.1,1.1-1.7,1.6
			c-1,0.7-2.9,1.2-4,0.4C25.5,353.8,25.4,353.8,25.3,353.7"/>
		<path class="st16" d="M26.3,352.8c0.2-1.3,1-2.4,2.1-3.1"/>
		<path class="st15" d="M32.8,353.8c0.6-0.8,2.2-0.8,3-0.5c-0.1,0.2-0.2,0.3-0.3,0.4c0.8,0.1,1.6,0.5,2.2,1.1l-0.5,0.3
			c0.8,0.7,1.1,2.4,1.1,2.4s-1.5,0.3-3.2-0.7c0,0.2,0,0.4,0,0.7c0,0.1-0.7-0.3-0.7-0.3c-0.4-0.3-0.7-0.6-1-0.9
			c-0.5-0.6-0.9-1.6-0.5-2.3C32.7,353.9,32.7,353.8,32.8,353.8"/>
		<path class="st17" d="M33.4,354.3c0.8,0,1.5,0.4,2,1.1"/>
		<path class="st14" d="M97.5,373c0.2-0.9,0.3-1.7,0.3-2.6s-0.1-1.8-0.6-2.4c-0.2-0.3-0.6-0.6-0.9-0.7c-0.4-0.1-0.8,0-1.1,0.2
			c-0.7,0.3-0.9,1.3-0.5,1.9l-0.1-0.1c0.6,0.4,1.4,0,1.8-0.5c0.4-0.6,0.5-1.4,0.3-2.1c-0.4-1.5-1.8-2.4-3.2-2.9
			c-1.5-0.6-3.1-0.8-4.7-1.5c-0.8-0.3-1.5-0.9-2.1-1.5s-1-1.5-1-2.3h0.1c0.4,1.6,1.8,2.6,3.3,3.1c1.5,0.6,3.1,0.7,4.8,1.3
			c0.8,0.3,1.6,0.7,2.2,1.3c0.7,0.6,1.2,1.4,1.4,2.3s0.1,1.9-0.5,2.6c-0.3,0.4-0.7,0.6-1.2,0.8c-0.5,0.1-1,0.1-1.4-0.2h-0.1v-0.1
			c-0.5-0.9-0.1-2.2,0.8-2.6c0.4-0.2,1-0.3,1.4-0.1c0.5,0.1,0.9,0.5,1.1,0.9c0.5,0.8,0.5,1.7,0.5,2.6C98,371.3,97.8,372.2,97.5,373
			L97.5,373z"/>
		<path class="st15" d="M95.7,363.9c1.5-0.8,1.8-3.4,1.4-4.9c-0.3,0.1-0.5,0.3-0.8,0.5c0-1.4-0.5-2.8-1.3-3.9
			c-0.2,0.3-0.4,0.6-0.6,0.8c-1-1.4-3.8-2.3-3.8-2.3s-0.9,2.4,0.4,5.5c-0.4,0-0.7-0.1-1.1-0.1c-0.1,0,0.3,1.1,0.3,1.2
			c0.3,0.7,0.8,1.4,1.3,1.9c0.9,0.9,2.5,1.8,3.8,1.4C95.4,364,95.6,363.9,95.7,363.9"/>
		<path class="st16" d="M95,362.7c0.1-1.3-0.4-2.6-1.3-3.5"/>
		<path class="st15" d="M88.4,362.2c-0.4-0.9-1.9-1.3-2.8-1.1c0.1,0.2,0.1,0.3,0.2,0.5c-0.8-0.1-1.7,0.1-2.4,0.5
			c0.1,0.1,0.3,0.3,0.4,0.4c-0.9,0.5-1.6,2.1-1.6,2.1s1.4,0.7,3.3,0.1c0,0.2-0.1,0.4-0.1,0.6c0,0.1,0.7-0.1,0.7-0.1
			c0.4-0.2,0.9-0.4,1.2-0.7c0.6-0.4,1.2-1.4,1.1-2.1C88.5,362.3,88.5,362.3,88.4,362.2"/>
		<path class="st17" d="M87.7,362.6c-0.8-0.1-1.6,0.1-2.2,0.6"/>
		<path class="st18" d="M107.2,309.4l-80.7-9.6c-2.3-0.3-4.3,1.3-4.5,3.6L12.3,385c-0.3,2.3,1.3,4.3,3.6,4.5l80.8,9.6
			c2.3,0.3,4.3-1.3,4.5-3.6l9.7-81.6C111,311.7,109.5,309.7,107.2,309.4 M104.7,315.5l-7.1,59.6l-77.3-9.2l7.1-59.6L104.7,315.5z"/>
		<path class="st19" d="M107.2,309.4l-80.7-9.6c-2.3-0.3-4.3,1.3-4.5,3.6L12.3,385c-0.3,2.3,1.3,4.3,3.6,4.5l80.8,9.6
			c2.3,0.3,4.3-1.3,4.5-3.6l9.7-81.6C111,311.7,109.5,309.7,107.2,309.4z M104.7,315.5l-7.1,59.6l-77.3-9.2l7.1-59.6L104.7,315.5z"
			/>
		
			<rect x="-46.5" y="340.4" transform="matrix(-0.7712 0.6366 -0.6366 -0.7712 211.2793 634.0558)" class="st20" width="76.4" height="29.2"/>
		
			<rect x="-28.2" y="361.3" transform="matrix(-0.7712 0.6366 -0.6366 -0.7712 257.8565 661.6934)" class="st21" width="76.4" height="31.8"/>
		<path class="st22" d="M11.8,351.9c-4.7-2.6-27.5-8.6-29.9-6.6c-2.1,1.7-0.3,22.6,1.5,30.1c1.3,0.5,2.8,0.3,4-0.3
			c5.5-2.5,7.6-3.4,11.6-7.8c0.3-0.3,3.1-3.8,3.5-3.8c8.7-2,12.1-6.9,11.9-10.4L11.8,351.9z"/>
		<path class="st18" d="M-8.7,346.2c-4.4-0.9-8-1.2-8.9-0.5c-0.9,0.8-1,6-0.7,11.8l3.8-5.7l5.3,3.8l-1.9-4.9l2,0.9L-8.7,346.2z"/>
		<g class="st23">
			<g>
				<g>
					<defs>
						<rect id="SVGID_4_" x="-18.8" y="361.1" width="16.5" height="14.7"/>
					</defs>
					<clipPath id="SVGID_5_">
						<use xlink:href="#SVGID_4_"  style="overflow:visible;"/>
					</clipPath>
					<path class="st24" d="M-18.7,361.3c1.4,1.7,2.7,3.4,4.4,4.8c2.5,2.1,8.9,1.3,12,2.6c-1.4,1.8-7.1,4.6-9.1,5.6
						c-0.9,0.5-1.8,1-2.8,1.4c-1,0.3-2.2,0.4-3.1-0.2c-0.1-1.2-0.1-2.4-0.2-3.6c0.1,0.1-0.2-4.7-0.6-7.2c-0.2-1.2-0.5-2.4-0.7-3.5"
						/>
				</g>
			</g>
		</g>
		<path class="st7" d="M-5.3,373.8c-4.1-2.3-24.2-7.6-26.4-5.8c-1.8,1.5-0.2,19.9,1.4,26.5c1.1,0.4,2.4,0.2,3.5-0.3
			c4.8-2.2,9.2-5.4,12.8-9.4c0.2-0.3,0.5-0.6,0.5-0.9c0.1-1-1.4-1.2-2.3-0.9c3.4-3,6.9-6,10.3-9"/>
		<path class="st18" d="M-23.4,368.8c-3.8-0.8-7.1-1.1-7.8-0.5c-0.8,0.7-0.9,5.3-0.6,10.4l3.3-5.1l4.7,3.3l-1.7-4.3l1.8,0.8
			L-23.4,368.8z"/>
		<path class="st25" d="M3.6,332.9c-1.5,1.2-1.7,3.4-0.5,4.9s3.4,1.7,4.9,0.5s1.7-3.4,0.5-4.9C7.3,331.9,5.1,331.7,3.6,332.9"/>
		<path class="st25" d="M3,332.2c0.2-0.2,0.2-0.4,0.1-0.6l-0.9-1c-0.2-0.2-0.4-0.2-0.6-0.1c-0.2,0.2-0.2,0.4-0.1,0.6l0.9,1.1
			C2.5,332.3,2.8,332.4,3,332.2"/>
		<path class="st25" d="M0.9,335.6c0.1,0,0.2,0,0.3-0.1c0.1-0.1,0.1-0.2,0.2-0.3c0-0.2-0.2-0.5-0.4-0.5l-1.4-0.1
			c-0.2,0-0.5,0.2-0.5,0.4c0,0.2,0.2,0.5,0.4,0.5L0.9,335.6z"/>
		<path class="st25" d="M2.4,338.4c-0.2-0.2-0.4-0.2-0.6-0.1l-1,0.9c-0.2,0.2-0.2,0.4-0.1,0.6c0.2,0.2,0.4,0.2,0.6,0.1l1.1-0.9
			C2.5,338.9,2.6,338.6,2.4,338.4"/>
		<path class="st25" d="M4.9,340.4l-0.1,1.3c0,0.2,0.2,0.5,0.4,0.5c0.1,0,0.2,0,0.3-0.1c0.1-0.1,0.1-0.2,0.2-0.3l0.1-1.3
			c0-0.2-0.2-0.5-0.4-0.5C5.1,340,4.9,340.2,4.9,340.4"/>
		<path class="st25" d="M8.6,339c-0.2,0.2-0.2,0.4-0.1,0.6l0.9,1.1c0.2,0.2,0.4,0.2,0.6,0.1c0.2-0.2,0.2-0.4,0.1-0.6l-0.9-1.1
			C9.1,338.9,8.8,338.9,8.6,339"/>
		<path class="st25" d="M10.7,335.6c-0.2,0-0.5,0.2-0.5,0.4c0,0.2,0.2,0.5,0.4,0.5l1.3,0.1c0.1,0,0.2,0,0.3-0.1s0.1-0.2,0.2-0.3
			c0-0.2-0.2-0.5-0.4-0.5L10.7,335.6z"/>
		<path class="st25" d="M10.3,331.3l-1.1,0.9c-0.2,0.2-0.2,0.4-0.1,0.6s0.4,0.2,0.6,0.1l1.1-0.9c0.2-0.2,0.2-0.4,0.1-0.6
			S10.5,331.2,10.3,331.3"/>
		<path class="st25" d="M6.6,331.1c0.1-0.1,0.1-0.2,0.2-0.3l0.1-1.3c0-0.2-0.2-0.5-0.4-0.5c-0.2,0-0.5,0.2-0.5,0.4l-0.1,1.3
			c0,0.2,0.2,0.5,0.4,0.5C6.4,331.2,6.5,331.2,6.6,331.1"/>
		<path class="st26" d="M9.3,343.2c-0.1,0.1-0.1,0.1-0.2,0.2c-0.6-0.6-1.5-0.7-2.2-0.2c-0.4,0.3-0.6,0.9-0.6,1.4
			c-0.3-0.1-0.7-0.1-1.1,0.2c-0.3,0.2-0.4,0.5-0.4,0.8c-0.8-0.4-1.8-0.3-2.5,0.3c-0.9,0.7-1.1,1.9-0.6,2.9c-0.1,0.1-0.2,0.1-0.3,0.2
			c-0.6,0.5-0.7,1.4-0.2,2c0.1,0.1,0.2,0.2,0.2,0.2l9.3-7.7c0-0.1-0.1-0.1-0.1-0.2C10.3,342.9,9.7,342.8,9.3,343.2"/>
		<path class="st18" d="M17.3,339.7c-0.1,0.1-0.2,0.2-0.2,0.2c-0.7-0.8-1.8-0.9-2.6-0.2c-0.5,0.4-0.7,1-0.7,1.6
			c-0.4-0.2-0.9-0.1-1.3,0.2c-0.3,0.2-0.5,0.6-0.4,1c-0.9-0.5-2.1-0.4-3,0.3c-1,0.9-1.3,2.3-0.7,3.4c-0.1,0.1-0.3,0.1-0.4,0.2
			c-0.7,0.6-0.8,1.7-0.2,2.4c0.1,0.1,0.2,0.2,0.3,0.3l11-9.1c0-0.1-0.1-0.2-0.2-0.2C18.5,339.4,17.8,339.3,17.3,339.7"/>
		<path class="st18" d="M-24.3,358.2c-0.1,0.1-0.2,0.2-0.2,0.2c-0.7-0.8-1.8-0.9-2.6-0.2c-0.5,0.4-0.7,1-0.7,1.6
			c-0.4-0.2-0.9-0.1-1.3,0.2c-0.3,0.2-0.5,0.6-0.4,1c-0.9-0.5-2.1-0.4-3,0.3c-1,0.9-1.3,2.3-0.7,3.4c-0.1,0.1-0.3,0.1-0.4,0.2
			c-0.7,0.6-0.8,1.7-0.2,2.4c0.1,0.1,0.2,0.2,0.3,0.3l11-9.1c0-0.1-0.1-0.2-0.2-0.2C-23,357.8-23.8,357.7-24.3,358.2"/>
		<path class="st18" d="M9.5,313.9l-61.6,50.8c-1.7,1.4-2,3.9-0.5,5.6l51.4,62.2c1.4,1.7,3.9,2,5.6,0.5L66,382.1
			c1.7-1.4,2-3.9,0.5-5.6l-51.4-62.2C13.7,312.7,11.2,312.5,9.5,313.9 M12.1,319.8l37.5,45.4l-59,48.7l-37.5-45.4L12.1,319.8z"/>
		<path class="st27" d="M9.5,313.9l-61.6,50.8c-1.7,1.4-2,3.9-0.5,5.6l51.4,62.2c1.4,1.7,3.9,2,5.6,0.5L66,382.1
			c1.7-1.4,2-3.9,0.5-5.6l-51.4-62.2C13.7,312.7,11.2,312.5,9.5,313.9z M12.1,319.8l37.5,45.4l-59,48.7l-37.5-45.4L12.1,319.8z"/>
		<g class="st23">
			<g>
				<g>
					<defs>
						<rect id="SVGID_6_" x="-20.4" y="377.9" width="10.6" height="5"/>
					</defs>
					<clipPath id="SVGID_7_">
						<use xlink:href="#SVGID_6_"  style="overflow:visible;"/>
					</clipPath>
					<path class="st28" d="M-15.9,382.9c-1.7-1.1-3.4-2.8-4.5-4.5c0.3,1.1,9-0.6,10.6-0.6"/>
				</g>
			</g>
		</g>
		<path class="st18" d="M-1.6,357c1.7,3.5,4.7,11.9,2.3,24.9l10.8-8.9"/>
		<path class="st29" d="M-1.8,354.6l-0.6-0.7c0.5-2.4,4.7-0.9,5.1-4.1c0.1-0.4-0.5-0.6-0.7-0.2c-0.9,1.8-6.1-0.7-7.3,1.7l0,0l0,0
			c-0.1,0.1,0,0.3,0,0.4l0,0c0.1,0.1,4.3,5.2,4.2,5"/>
		<path class="st18" d="M12.7,372.1l12-9.9c-9.5-8.4-18-9.8-26.5-7.6"/>
		
			<rect x="4.1" y="347.6" transform="matrix(-0.7715 0.6363 -0.6363 -0.7715 239.5969 641.3608)" class="st30" width="1" height="32.2"/>
		<path class="st31" d="M12.9,374.7L0.2,385.2c-0.7,0.6-0.8,1.6-0.2,2.3c0.5,0.6,1.4,0.8,2,0.4L29.7,365c0.5-0.6,0.5-1.5,0-2.1
			c-0.6-0.7-1.6-0.8-2.3-0.2l-13.8,11.4"/>
		<path class="st32" d="M2.1,387.7c2.7,0.1,6,0.8,8.1,2.3h0.1c0.4,0.1,0.8,0,1.1-0.3c0.8-0.7,20.6-16.9,20.4-18
			c0.1-2.3-1-4.8-2.2-6.8L2.1,387.7z"/>
		<line class="st33" x1="4.8" y1="387" x2="28.9" y2="367.1"/>
		<line class="st33" x1="21.9" y1="375.7" x2="30.3" y2="368.8"/>
		<path class="st34" d="M7.5,372.5c0.6,0.8,0.5,1.9-0.2,2.5c-0.8,0.6-1.9,0.5-2.5-0.2c-0.6-0.8-0.5-1.9,0.2-2.5
			C5.7,371.6,6.8,371.7,7.5,372.5"/>
		<path class="st35" d="M4.6,374.6c-0.9-0.9-1.1-1.6,0-2.5s1.4-0.4,1.4-0.4s0.2-0.2,0.5-0.2c0.1,0,0.7,0.5,0.9,0.9
			c-0.5-0.5-1.4,0.4-1.7-0.2c0,0,0.2,0.4,0.1,0.6c0-0.2-0.2-0.4-0.2-0.4s0.2,0.3-0.3,0.8C4.8,373.8,4.4,373.7,4.6,374.6"/>
		<path class="st36" d="M5.8,371.8c0,0-0.2-0.1-0.5,0c-0.2,0.1-0.5,0.4-0.5,0.4s0.4-0.3,0.5-0.4C5.6,371.8,5.8,371.8,5.8,371.8"/>
		<path class="st36" d="M7,372c0,0-0.3-0.4-0.5-0.4s-0.4,0.1-0.4,0.1S6.6,371.6,7,372"/>
		<g class="st37">
			<g>
				<g>
					<defs>
						<rect id="SVGID_8_" x="5.9" y="373.8" width="1.9" height="1.6"/>
					</defs>
					<clipPath id="SVGID_9_">
						<use xlink:href="#SVGID_8_"  style="overflow:visible;"/>
					</clipPath>
					<path class="st38" d="M5.9,375.4c1,0.1,1.8-0.6,1.9-1.6c0,0-0.1,0.4-0.7,0.9C6.5,375.2,5.9,375.4,5.9,375.4"/>
				</g>
			</g>
		</g>
		<path class="st31" d="M10.9,376.2c-1.3-1.5-2.8-1.8-3.6-1.1c-0.9,0.7-0.8,2.2,0.4,3.8L10.9,376.2z"/>
		<path class="st39" d="M10.5,376.5L8,378.6L6.7,377c-0.2-0.8,0-1.5,0.5-1.9s1.2-0.5,2-0.2L10.5,376.5z"/>
		<path class="st40" d="M7.7,375l-0.5,0.4c-0.1,0.1-0.2,0-0.2,0l-0.1-0.1c-0.1-0.1,0-0.2,0-0.2l0.5-0.4c0.1-0.1,0.2,0,0.2,0l0.1,0.1
			C7.7,374.9,7.7,375,7.7,375"/>
		<line class="st41" x1="7.2" y1="374.9" x2="9.3" y2="377.5"/>
		<path class="st42" d="M5.6,373.9c0.1,0.1,0.1,0.3,0,0.4s-0.3,0.1-0.4,0s-0.1-0.3,0-0.4C5.4,373.8,5.5,373.8,5.6,373.9"/>
		<g class="st43">
			<g>
				<g>
					<defs>
						<rect id="SVGID_10_" x="5.2" y="373.8" width="0.2" height="0.2"/>
					</defs>
					<clipPath id="SVGID_11_">
						<use xlink:href="#SVGID_10_"  style="overflow:visible;"/>
					</clipPath>
					<path class="st44" d="M5.4,373.8L5.4,373.8c-0.1,0-0.2,0.1-0.1,0.1h0.1C5.4,373.9,5.4,373.9,5.4,373.8"/>
				</g>
			</g>
		</g>
		<path class="st42" d="M6.8,372.9c0.1,0.1,0.1,0.3,0,0.4s-0.3,0.1-0.4,0s-0.1-0.3,0-0.4C6.5,372.8,6.7,372.8,6.8,372.9"/>
		<g class="st43">
			<g>
				<g>
					<defs>
						<rect id="SVGID_12_" x="6.4" y="372.9" width="0.2" height="0.2"/>
					</defs>
					<clipPath id="SVGID_13_">
						<use xlink:href="#SVGID_12_"  style="overflow:visible;"/>
					</clipPath>
					<path class="st45" d="M6.6,372.9L6.6,372.9c-0.1,0-0.2,0.1-0.1,0.1h0.1V372.9"/>
				</g>
			</g>
		</g>
		<path class="st46" d="M17.2,371.1c-1.3-1.5-2.8-1.8-3.6-1.1c-0.9,0.7-0.8,2.2,0.3,3.8L17.2,371.1z"/>
		<path class="st47" d="M13.8,367.3c0.6,0.8,0.5,1.9-0.2,2.5c-0.8,0.6-1.9,0.5-2.5-0.2s-0.5-1.9,0.2-2.5
			C12,366.4,13.1,366.6,13.8,367.3"/>
		<path class="st48" d="M12,367c0,0,0.1,0.5-0.4,1c-0.5,0.5-1,0.5-0.8,1.3c-0.9-0.9-1.1-1.6,0-2.5s1.4-0.4,1.4-0.4s0.2-0.2,0.5-0.2
			c0.2,0,0.7,0.5,0.9,0.9C13.2,366.8,12.3,367.6,12,367"/>
		<path class="st49" d="M12.2,366.7c0,0-0.2-0.1-0.5,0c-0.2,0.1-0.5,0.4-0.5,0.4s0.4-0.3,0.6-0.4C12,366.7,12.2,366.7,12.2,366.7"/>
		<path class="st49" d="M13.4,366.9c0,0-0.3-0.4-0.5-0.4s-0.4,0.1-0.4,0.1S13,366.5,13.4,366.9"/>
		<path class="st48" d="M13.1,365.5c0.4-0.1,0.8,0,1.1,0.3c0.3,0.2,0.5,0.5,0.8,0.8c0.2,0.2,0.4,0.5,0.6,0.7
			c0.1,0.1,0.2,0.3,0.4,0.4s0.4,0.1,0.5,0c-0.1,0.4-0.6,0.6-1,0.6s-0.8-0.3-1.1-0.6c-0.3-0.3-0.6-0.6-0.8-1
			c-0.1-0.2-0.3-0.3-0.5-0.4s-0.4-0.1-0.6,0C12.3,366,12.8,365.6,13.1,365.5"/>
		<path class="st39" d="M12.6,366.2c0.1,0.1,0.1,0.3,0,0.3s-0.3,0.1-0.3,0c-0.1-0.1-0.1-0.3,0-0.3C12.4,366.1,12.5,366.1,12.6,366.2
			"/>
		<path class="st50" d="M14,369.7c0.1,0.2,0.1,0.5-0.1,0.6c-0.2,0.2-0.5,0.1-0.6,0c-0.5,0.8-0.4,2.1,0.7,3.4l3.3-2.7
			C16.1,369.8,14.9,369.4,14,369.7"/>
		<g class="st37">
			<g>
				<g>
					<defs>
						<rect id="SVGID_14_" x="12.2" y="368.6" width="1.9" height="1.6"/>
					</defs>
					<clipPath id="SVGID_15_">
						<use xlink:href="#SVGID_14_"  style="overflow:visible;"/>
					</clipPath>
					<path class="st51" d="M12.2,370.2c1,0.1,1.8-0.6,1.9-1.6c0,0-0.1,0.4-0.7,0.9C12.9,370.1,12.2,370.2,12.2,370.2"/>
				</g>
			</g>
		</g>
		<path class="st42" d="M11.9,368.7c0.1,0.1,0.1,0.3,0,0.4s-0.3,0.1-0.4,0s-0.1-0.3,0-0.4C11.7,368.5,11.9,368.6,11.9,368.7"/>
		<g class="st43">
			<g>
				<g>
					<defs>
						<rect id="SVGID_16_" x="11.6" y="368.6" width="0.2" height="0.2"/>
					</defs>
					<clipPath id="SVGID_17_">
						<use xlink:href="#SVGID_16_"  style="overflow:visible;"/>
					</clipPath>
					<path class="st52" d="M11.8,368.6h-0.1c0,0-0.1,0.1,0,0.1h0.1C11.7,368.7,11.8,368.6,11.8,368.6"/>
				</g>
			</g>
		</g>
		<path class="st42" d="M13.1,367.7c0.1,0.1,0.1,0.3,0,0.4s-0.3,0.1-0.4,0c-0.1-0.1-0.1-0.3,0-0.4C12.9,367.6,13,367.6,13.1,367.7"
			/>
		<g class="st43">
			<g>
				<g>
					<defs>
						<rect id="SVGID_18_" x="12.7" y="367.6" width="0.2" height="0.2"/>
					</defs>
					<clipPath id="SVGID_19_">
						<use xlink:href="#SVGID_18_"  style="overflow:visible;"/>
					</clipPath>
					<path class="st53" d="M12.9,367.7h-0.1c0,0-0.1,0.1,0,0.1h0.1C12.9,367.7,12.9,367.7,12.9,367.7"/>
				</g>
			</g>
		</g>
		<polygon class="st7" points="18,367.1 16,364.7 18.7,362.5 20.7,364.9 		"/>
		<path class="st34" d="M19.2,363.1c0.6,0.7,0.5,1.8-0.2,2.4s-1.8,0.5-2.4-0.2s-0.5-1.8,0.2-2.4C17.5,362.3,18.6,362.4,19.2,363.1"
			/>
		<path class="st42" d="M17.4,364.5c0.1,0.1,0.1,0.3,0,0.3c-0.1,0.1-0.3,0.1-0.3,0c-0.1-0.1-0.1-0.3,0-0.3
			C17.2,364.4,17.3,364.4,17.4,364.5"/>
		<g class="st43">
			<g>
				<g>
					<defs>
						<rect id="SVGID_20_" x="17" y="364.4" width="0.2" height="0.2"/>
					</defs>
					<clipPath id="SVGID_21_">
						<use xlink:href="#SVGID_20_"  style="overflow:visible;"/>
					</clipPath>
					<path class="st54" d="M17.2,364.5h-0.1c0,0-0.1,0.1,0,0.1h0.1C17.2,364.5,17.2,364.5,17.2,364.5"/>
				</g>
			</g>
		</g>
		<path class="st42" d="M18.5,363.6c0.1,0.1,0.1,0.3,0,0.3c-0.1,0.1-0.3,0.1-0.3,0c-0.1-0.1-0.1-0.3,0-0.3
			C18.3,363.4,18.4,363.5,18.5,363.6"/>
		<g class="st43">
			<g>
				<g>
					<defs>
						<rect id="SVGID_22_" x="18.2" y="363.5" width="0.2" height="0.2"/>
					</defs>
					<clipPath id="SVGID_24_">
						<use xlink:href="#SVGID_22_"  style="overflow:visible;"/>
					</clipPath>
					<path class="st55" d="M18.3,363.5h-0.1c0,0-0.1,0.1,0,0.1h0.1C18.3,363.6,18.4,363.5,18.3,363.5"/>
				</g>
			</g>
		</g>
		<path class="st29" d="M22.5,366.7c-1.3-1.4-2.7-1.7-3.5-1s-0.8,2.1,0.3,3.6L22.5,366.7z"/>
		<path class="st7" d="M17.5,362.9c0,0,0.2,0.4,0.1,0.6c0-0.2-0.1-0.4-0.1-0.4s0.2,0.3-0.3,0.8s-0.9,0.5-0.7,1.3
			c-0.9-0.8-1.1-1.5,0-2.4c1.1-0.8,1.4-0.4,1.4-0.4s0.2-0.2,0.5-0.2c0.1,0,0.7,0.5,0.9,0.9C18.7,362.6,17.8,363.4,17.5,362.9"/>
		<path class="st56" d="M18.6,366.2c0.1-0.2,0.2-0.4,0.4-0.5s0.4-0.2,0.6-0.3c0,0,0.2,0.5-0.4,0.5C19.2,365.9,19.1,366.5,18.6,366.2
			"/>
		<path class="st57" d="M17.6,362.5c0,0-0.2-0.1-0.5,0c-0.2,0.1-0.5,0.4-0.5,0.4s0.4-0.3,0.5-0.4C17.4,362.5,17.6,362.5,17.6,362.5"
			/>
		<path class="st57" d="M18.8,362.7c0,0-0.3-0.4-0.4-0.4c-0.2,0-0.4,0.1-0.4,0.1S18.3,362.3,18.8,362.7"/>
		<path class="st56" d="M19.5,366.1v0.1h-0.1v-0.1C19.4,366.1,19.4,366.1,19.5,366.1"/>
		<path class="st56" d="M19.7,366.4v0.1h-0.1v-0.1H19.7"/>
		<g>
			<g>
				<defs>
					<path id="SVGID_25_" d="M390.5,260.1H253.3c-7.5,0-13.6,5.3-13.6,11.9v264.6c0,6.6,6.1,11.9,13.6,11.9h137.2
						c7.5,0,13.6-5.3,13.6-11.9V272C404.1,265.4,398,260.1,390.5,260.1L390.5,260.1"/>
				</defs>
				<clipPath id="SVGID_26_">
					<use xlink:href="#SVGID_25_"  style="overflow:visible;"/>
				</clipPath>
				
					<linearGradient id="SVGID_27_" gradientUnits="userSpaceOnUse" x1="-796.3611" y1="43.9444" x2="-795.3611" y2="43.9444" gradientTransform="matrix(0 -288.4097 -288.4097 0 12995.832 -229129.8906)">
					<stop  offset="0" style="stop-color:#808080"/>
					<stop  offset="0.54" style="stop-color:#808080"/>
					<stop  offset="1" style="stop-color:#808080"/>
				</linearGradient>
				<rect x="239.7" y="260" class="st58" width="164.3" height="288.4"/>
			</g>
		</g>
		<path class="st59" d="M254.8,262.3H389c7.6,0,13.8,5.4,13.8,12.2v260.8c0,6.7-6.2,12.2-13.8,12.2H254.8c-7.6,0-13.8-5.4-13.8-12.2
			V274.4C241,267.7,247.2,262.3,254.8,262.3"/>
		<rect x="252.9" y="288.8" class="st18" width="138" height="232.1"/>
		<rect x="252.9" y="288.8" class="st18" width="138" height="231.5"/>
		<path class="st18" d="M305.6,274.4c0.7,0,1.3,0.5,1.3,1.1s-0.6,1.1-1.3,1.1c-0.7,0-1.3-0.5-1.3-1.1S304.9,274.4,305.6,274.4"/>
		<path class="st18" d="M313.1,274.4h25.1c0.7,0,1.3,0.5,1.3,1.1s-0.6,1.1-1.3,1.1h-25.1c-0.7,0-1.3-0.5-1.3-1.1
			S312.4,274.4,313.1,274.4"/>
		<path class="st18" d="M320.1,524.9c4.2,0,7.6,3.5,7.6,7.7c0,4.3-3.4,7.7-7.6,7.7s-7.6-3.5-7.6-7.7S315.9,524.9,320.1,524.9"/>
		<rect x="290.7" y="435.8" class="st18" width="62.6" height="7.4"/>
		<rect x="252.7" y="324.7" class="st20" width="138.5" height="116.2"/>
		<path class="st60" d="M267,423.2c-0.1-2.2-2.2-3.7-4.3-3.1c-2-3-6.6-1.7-6.7,1.9c-3.7,1-3,6.6,0.9,6.6h9.2
			C269.2,428.5,269.9,424.1,267,423.2"/>
		<path class="st60" d="M371.1,423.2c-0.1-2.2-2.2-3.7-4.3-3.1c-2-3-6.6-1.7-6.7,1.9c-3.7,1-3,6.6,0.9,6.6h9.2
			C373.3,428.5,374,424.1,371.1,423.2"/>
		<rect x="271.7" y="346.9" class="st18" width="50.9" height="81.6"/>
		<rect x="278.4" y="353.6" class="st61" width="8.4" height="11.9"/>
		<line class="st62" x1="278.4" y1="359.6" x2="286.8" y2="359.6"/>
		<rect x="278.4" y="353.6" class="st62" width="8.4" height="11.9"/>
		<rect x="276.8" y="364.8" class="st63" width="11.5" height="1.6"/>
		<rect x="293.2" y="353.6" class="st61" width="8.4" height="11.9"/>
		<line class="st62" x1="293.2" y1="359.6" x2="301.5" y2="359.6"/>
		<rect x="293.2" y="353.6" class="st62" width="8.4" height="11.9"/>
		<rect x="291.6" y="364.8" class="st63" width="11.5" height="1.6"/>
		<rect x="307.9" y="353.6" class="st61" width="8.4" height="11.9"/>
		<line class="st62" x1="307.9" y1="359.6" x2="316.2" y2="359.6"/>
		<rect x="307.9" y="353.6" class="st62" width="8.4" height="11.9"/>
		<rect x="306.3" y="364.8" class="st63" width="11.5" height="1.6"/>
		<rect x="278.4" y="382.3" class="st61" width="8.4" height="11.9"/>
		<line class="st62" x1="278.4" y1="388.3" x2="286.8" y2="388.3"/>
		<rect x="278.4" y="382.3" class="st62" width="8.4" height="11.9"/>
		<rect x="276.8" y="393.4" class="st63" width="11.5" height="1.6"/>
		<rect x="278.4" y="406.6" class="st61" width="8.4" height="11.9"/>
		<line class="st62" x1="278.4" y1="412.5" x2="286.8" y2="412.5"/>
		<rect x="278.4" y="406.6" class="st62" width="8.4" height="11.9"/>
		<rect x="276.8" y="417.7" class="st63" width="11.5" height="1.6"/>
		<rect x="293.2" y="382.3" class="st61" width="8.4" height="11.9"/>
		<line class="st62" x1="293.2" y1="388.3" x2="301.5" y2="388.3"/>
		<rect x="293.2" y="382.3" class="st62" width="8.4" height="11.9"/>
		<rect x="291.6" y="393.4" class="st63" width="11.5" height="1.6"/>
		<rect x="307.9" y="382.3" class="st61" width="8.4" height="11.9"/>
		<line class="st62" x1="307.9" y1="388.3" x2="316.2" y2="388.3"/>
		<rect x="307.9" y="382.3" class="st62" width="8.4" height="11.9"/>
		<rect x="306.3" y="393.4" class="st63" width="11.5" height="1.6"/>
		<line class="st64" x1="271.7" y1="375.1" x2="322.6" y2="375.1"/>
		<rect x="270.5" y="346.1" class="st60" width="53.7" height="1.6"/>
		<rect x="270.5" y="345.5" class="st7" width="53.7" height="0.8"/>
		<rect x="293.2" y="406.6" class="st60" width="23.1" height="21.9"/>
		<rect x="288.4" y="334.1" class="st65" width="30.6" height="7.6"/>
		<rect x="291.6" y="341.7" class="st7" width="0.8" height="4"/>
		<rect x="314.7" y="341.7" class="st7" width="0.8" height="4"/>
		<polygon class="st18" points="296.8,340.1 295.6,340.1 295.6,338.1 293.7,338.1 293.7,340.1 292.6,340.1 292.6,335.4 293.7,335.4 
			293.7,337.4 295.6,337.4 295.6,335.4 296.8,335.4 		"/>
		<path class="st18" d="M302.7,337.8c0,0.3-0.1,0.7-0.2,1s-0.3,0.5-0.5,0.8c-0.2,0.2-0.5,0.4-0.8,0.5s-0.6,0.2-1,0.2s-0.7-0.1-1-0.2
			s-0.6-0.3-0.8-0.5c-0.2-0.2-0.4-0.5-0.5-0.8s-0.2-0.6-0.2-1c0-0.3,0.1-0.7,0.2-1s0.3-0.5,0.5-0.8c0.2-0.2,0.5-0.4,0.8-0.5
			s0.6-0.2,1-0.2s0.7,0.1,1,0.2s0.6,0.3,0.8,0.5c0.2,0.2,0.4,0.5,0.5,0.8S302.7,337.4,302.7,337.8 M301.6,337.8c0-0.2,0-0.4-0.1-0.6
			s-0.1-0.3-0.3-0.5c-0.1-0.1-0.3-0.2-0.4-0.3c-0.2-0.1-0.4-0.1-0.6-0.1s-0.4,0-0.6,0.1s-0.3,0.2-0.4,0.3c-0.1,0.1-0.2,0.3-0.3,0.5
			c-0.1,0.2-0.1,0.4-0.1,0.6s0,0.4,0.1,0.6s0.1,0.3,0.3,0.5c0.1,0.1,0.3,0.2,0.4,0.3c0.2,0.1,0.4,0.1,0.6,0.1s0.4,0,0.6-0.1
			s0.3-0.2,0.4-0.3c0.1-0.1,0.2-0.3,0.3-0.5C301.5,338.2,301.6,338,301.6,337.8"/>
		<polygon class="st18" points="306.9,335.4 306.9,336.3 305.6,336.3 305.6,340.1 304.5,340.1 304.5,336.3 303.2,336.3 303.2,335.4 
					"/>
		<polygon class="st18" points="310.9,335.4 310.9,336.3 309,336.3 309,337.4 310.5,337.4 310.5,338.2 309,338.2 309,339.3 
			310.9,339.3 310.9,340.1 307.9,340.1 307.9,335.4 		"/>
		<polygon class="st18" points="313.1,339.3 314.9,339.3 314.9,340.1 312,340.1 312,335.4 313.1,335.4 		"/>
		<rect x="295.2" y="409" class="st61" width="8.4" height="17.5"/>
		<rect x="305.7" y="409" class="st61" width="8.4" height="17.5"/>
		<polygon class="st65" points="294.8,409.1 292,409.1 293,403.3 295.6,403.3 		"/>
		<polygon class="st65" points="300.6,409.1 297.7,409.1 298.3,403.3 300.9,403.3 		"/>
		<polygon class="st65" points="306.3,409.1 303.5,409.1 303.6,403.3 306.2,403.3 		"/>
		<polygon class="st65" points="312.1,409.1 309.2,409.1 308.9,403.3 311.5,403.3 		"/>
		<polygon class="st65" points="317.8,409.1 315,409.1 314.2,403.3 316.8,403.3 		"/>
		<polygon class="st18" points="297.7,409.1 294.8,409.1 295.6,403.3 298.3,403.3 		"/>
		<polygon class="st18" points="303.5,409.1 300.6,409.1 300.9,403.3 303.6,403.3 		"/>
		<polygon class="st18" points="309.2,409.1 306.3,409.1 306.2,403.3 308.9,403.3 		"/>
		<polygon class="st18" points="315,409.1 312.1,409.1 311.5,403.3 314.2,403.3 		"/>
		<path class="st66" d="M294.8,409c0,0.8-0.6,1.5-1.4,1.5s-1.4-0.7-1.4-1.5"/>
		<path class="st66" d="M300.6,409c0,0.8-0.6,1.5-1.4,1.5s-1.4-0.7-1.4-1.5"/>
		<path class="st67" d="M297.7,409c0,0.8-0.6,1.5-1.4,1.5s-1.4-0.7-1.4-1.5"/>
		<path class="st67" d="M303.5,409c0,0.8-0.6,1.5-1.4,1.5s-1.4-0.7-1.4-1.5"/>
		<path class="st66" d="M306.3,409c0,0.8-0.6,1.5-1.4,1.5s-1.4-0.7-1.4-1.5"/>
		<path class="st67" d="M309.2,409c0,0.8-0.6,1.5-1.4,1.5s-1.4-0.7-1.4-1.5"/>
		<path class="st66" d="M312.1,409c0,0.8-0.6,1.5-1.4,1.5s-1.4-0.7-1.4-1.5"/>
		<path class="st66" d="M317.8,409c0,0.8-0.6,1.5-1.4,1.5s-1.4-0.7-1.4-1.5"/>
		<path class="st67" d="M315,409c0,0.8-0.6,1.5-1.4,1.5s-1.4-0.7-1.4-1.5"/>
		<path class="st26" d="M353.9,339.5c-0.3,0-0.5,0-0.7,0.1c-0.1-2.2-1.9-4-4.1-4c-1.5,0-2.7,0.7-3.5,1.9c-0.5-0.9-1.4-1.5-2.4-1.5
			c-0.9,0-1.6,0.4-2.1,1c-1-2.2-3.1-3.7-5.6-3.7c-3,0-5.5,2.1-6,5c-0.3-0.1-0.6-0.1-1-0.1c-2.1,0-3.8,1.7-3.8,3.8
			c0,0.3,0,0.6,0.1,0.9h31.8c0-0.2,0.1-0.4,0.1-0.6C356.7,340.8,355.4,339.5,353.9,339.5"/>
		<path class="st18" d="M376,346c-0.3,0-0.6,0-0.9,0.1c-0.1-2.7-2.2-4.8-4.9-4.8c-1.7,0-3.2,0.9-4.1,2.2c-0.5-1-1.6-1.7-2.9-1.7
			c-1,0-1.9,0.5-2.5,1.2c-1.1-2.6-3.7-4.3-6.7-4.3c-3.5,0-6.5,2.5-7.1,5.9c-0.4-0.1-0.8-0.2-1.2-0.2c-2.5,0-4.5,2-4.5,4.5
			c0,0.4,0,0.7,0.1,1h37.8c0.1-0.2,0.1-0.5,0.1-0.7C379.2,347.5,377.8,346,376,346"/>
		<rect x="351.9" y="415.7" class="st68" width="0.8" height="12"/>
		<path class="st60" d="M351.9,418.4L351.9,418.4c-3.9,0-7.1-3.2-7.1-7.1v-10.5c0-3.9,3.2-7.1,7.1-7.1s7.1,3.2,7.1,7.1v10.5
			C359.1,415.2,355.8,418.4,351.9,418.4"/>
		<rect x="328.9" y="415.5" class="st69" width="0.8" height="12.3"/>
		<path class="st60" d="M328.9,418.1L328.9,418.1c-4,0-7.3-3.3-7.3-7.3v-1.3c0-4,3.3-7.3,7.3-7.3s7.3,3.3,7.3,7.3v1.3
			C336.2,414.9,332.9,418.1,328.9,418.1"/>
		<rect x="252.7" y="428.1" class="st63" width="138.8" height="4.3"/>
		<rect x="252.7" y="430.2" class="st31" width="138.5" height="10.7"/>
		<g class="st70">
			<g>
				<g>
					<defs>
						<rect id="SVGID_28_" x="268" y="294" width="18.4" height="18.4"/>
					</defs>
					<clipPath id="SVGID_29_">
						<use xlink:href="#SVGID_28_"  style="overflow:visible;"/>
					</clipPath>
					<path class="st71" d="M286.4,303.2c0,5.1-4.1,9.2-9.2,9.2s-9.2-4.1-9.2-9.2s4.1-9.2,9.2-9.2C282.3,294,286.4,298.2,286.4,303.2
						"/>
				</g>
			</g>
		</g>
		<g class="st70">
			<g>
				<g>
					<defs>
						<rect id="SVGID_30_" x="353.3" y="299.9" width="25.9" height="9.2"/>
					</defs>
					<clipPath id="SVGID_31_">
						<use xlink:href="#SVGID_30_"  style="overflow:visible;"/>
					</clipPath>
					<path class="st72" d="M374.6,309.1h-16.7c-2.6,0-4.6-2.1-4.6-4.6s2.1-4.6,4.6-4.6h16.7c2.6,0,4.6,2.1,4.6,4.6
						S377.1,309.1,374.6,309.1"/>
				</g>
			</g>
		</g>
		<path class="st60" d="M311.9,498H266c-1.9,0-3.4-1.5-3.4-3.4v-30.5c0-1.9,1.5-3.4,3.4-3.4h45.9c1.9,0,3.4,1.5,3.4,3.4v30.5
			C315.4,496.4,313.8,498,311.9,498"/>
		<g class="st37">
			<g>
				<g>
					<defs>
						<rect id="SVGID_32_" x="274.2" y="467.6" width="26.1" height="23.7"/>
					</defs>
					<clipPath id="SVGID_33_">
						<use xlink:href="#SVGID_32_"  style="overflow:visible;"/>
					</clipPath>
					<path class="st73" d="M281.4,482h15.8c0.8,0,1.6-0.6,1.7-1.4l1.4-8.5c0.1-0.5-0.1-1-0.4-1.4s-0.8-0.6-1.3-0.6h-19l-0.2-1.1
						c-0.1-0.8-0.8-1.4-1.7-1.4h-2.6c-0.5,0-0.8,0.4-0.8,0.8c0,0.5,0.4,0.8,0.8,0.8h2.7l2.3,15.5c0.1,0.8,0.8,1.4,1.7,1.4H298
						c0.5,0,0.8-0.4,0.8-0.8c0-0.5-0.4-0.8-0.8-0.8h-16.2L281.4,482 M280.4,475.3l-0.2-1.2h18l-0.2,1.2H280.4z M297.8,476.5
						l-0.2,1.2h-16.9l-0.2-1.2H297.8z M281.1,480.3l-0.2-1.4h16.5l-0.2,1.4H281.1z M298.4,472.9H280l-0.2-1.1h18.8L298.4,472.9z"/>
				</g>
				<g>
					<defs>
						<rect id="SVGID_34_" x="274.2" y="467.6" width="26.1" height="23.7"/>
					</defs>
					<clipPath id="SVGID_35_">
						<use xlink:href="#SVGID_34_"  style="overflow:visible;"/>
					</clipPath>
					<path class="st74" d="M283.5,487.9c-0.9,0-1.7,0.8-1.7,1.7c0,0.9,0.8,1.7,1.7,1.7c0.9,0,1.7-0.8,1.7-1.7
						C285.2,488.6,284.5,487.9,283.5,487.9"/>
				</g>
				<g>
					<defs>
						<rect id="SVGID_36_" x="274.2" y="467.6" width="26.1" height="23.7"/>
					</defs>
					<clipPath id="SVGID_37_">
						<use xlink:href="#SVGID_36_"  style="overflow:visible;"/>
					</clipPath>
					<path class="st75" d="M294.5,487.9c-0.9,0-1.7,0.8-1.7,1.7c0,0.9,0.8,1.7,1.7,1.7c0.9,0,1.7-0.8,1.7-1.7
						C296.2,488.6,295.5,487.9,294.5,487.9"/>
				</g>
			</g>
		</g>
		<path class="st18" d="M282.5,482.7h15.8c0.8,0,1.6-0.6,1.7-1.4l1.4-8.5c0.1-0.5-0.1-1-0.4-1.4s-0.8-0.6-1.3-0.6h-19l-0.2-1.1
			c-0.1-0.8-0.8-1.4-1.7-1.4h-2.6c-0.5,0-0.8,0.4-0.8,0.8s0.4,0.8,0.8,0.8h2.7l2.3,15.5c0.1,0.8,0.8,1.4,1.7,1.4h16.2
			c0.5,0,0.8-0.4,0.8-0.8c0-0.5-0.4-0.8-0.8-0.8h-16.2L282.5,482.7 M281.6,476.1l-0.2-1.2h18l-0.2,1.2H281.6z M299,477.3l-0.2,1.2
			h-16.9l-0.2-1.2H299z M282.3,481l-0.2-1.4h16.5l-0.2,1.4H282.3z M299.6,473.7h-18.4l-0.2-1.1h18.8L299.6,473.7z"/>
		<path class="st18" d="M284.7,488.6c-0.9,0-1.7,0.8-1.7,1.7c0,0.9,0.8,1.7,1.7,1.7c0.9,0,1.7-0.8,1.7-1.7
			C286.4,489.4,285.7,488.6,284.7,488.6"/>
		<path class="st18" d="M295.7,488.6c-0.9,0-1.7,0.8-1.7,1.7c0,0.9,0.8,1.7,1.7,1.7c0.9,0,1.7-0.8,1.7-1.7
			C297.4,489.4,296.6,488.6,295.7,488.6"/>
		<rect x="326.4" y="460.6" class="st31" width="44.1" height="7"/>
		<rect x="326.4" y="473.4" class="st31" width="54.7" height="3.9"/>
		<rect x="326.4" y="481.7" class="st31" width="54.7" height="3.9"/>
		<rect x="326.4" y="490" class="st31" width="54.7" height="3.9"/>
		<path class="st59" d="M58.2,582c-2.3,0-4.2-1.9-4.2-4.2v-3.6c0-2.3,1.9-4.2,4.2-4.2s4.2,1.9,4.2,4.2v3.6
			C62.4,580.2,60.5,582,58.2,582"/>
		<path class="st59" d="M103.7,582c-2.3,0-4.2-1.9-4.2-4.2v-3.6c0-2.3,1.9-4.2,4.2-4.2s4.2,1.9,4.2,4.2v3.6
			C107.9,580.2,106,582,103.7,582"/>
		<path class="st76" d="M62.6,461H61c-0.6,0-1-0.5-1-1v-25.6c0-0.6,0.5-1,1-1h1.6c0.6,0,1,0.5,1,1V460C63.6,460.5,63.1,461,62.6,461
			"/>
		<path class="st76" d="M94.9,461h-1.6c-0.6,0-1-0.5-1-1v-25.6c0-0.6,0.5-1,1-1h1.6c0.6,0,1,0.5,1,1V460
			C95.9,460.5,95.5,461,94.9,461"/>
		<path class="st59" d="M95.9,432.8L95.9,432.8c0,1.7-1.3,3-3,3h-30c-1.7,0-3-1.3-3-3s1.3-3,3-3h30
			C94.6,429.8,95.9,431.1,95.9,432.8"/>
		<path class="st60" d="M110.6,572.5H47.7c-4.5,0-8.1-3.6-8.1-8.1v-97.7c0-4.5,3.6-8.1,8.1-8.1h62.9c4.5,0,8.1,3.6,8.1,8.1v97.7
			C118.7,568.8,115.1,572.5,110.6,572.5"/>
		<path class="st77" d="M53.4,562.9L53.4,562.9c-1,0-1.8-0.8-1.8-1.8v-83.9c0-1,0.8-1.8,1.8-1.8s1.8,0.8,1.8,1.8v83.9
			C55.2,562.1,54.4,562.9,53.4,562.9"/>
		<path class="st77" d="M78.6,562.9L78.6,562.9c-1,0-1.8-0.8-1.8-1.8v-83.9c0-1,0.8-1.8,1.8-1.8s1.8,0.8,1.8,1.8v83.9
			C80.3,562.1,79.5,562.9,78.6,562.9"/>
		<path class="st77" d="M103.7,562.9L103.7,562.9c-1,0-1.8-0.8-1.8-1.8v-83.9c0-1,0.8-1.8,1.8-1.8s1.8,0.8,1.8,1.8v83.9
			C105.5,562.1,104.7,562.9,103.7,562.9"/>
		<path class="st78" d="M178,567.5l14.9-3c0.1,0,14.7,15.5,14.7,15.5l-30.8,0.2l0.9-12.4C177.7,567.7,177.8,567.6,178,567.5"/>
		<path class="st78" d="M128.1,580l11.7-10.5c0-0.1,17.9-2,17.9-2c0.1,0,0.3,0.1,0.3,0.2l0.9,12.4"/>
		<polygon class="st79" points="180,319.6 187.6,319.6 179.2,323.3 		"/>
		<polygon class="st79" points="161.8,323.8 152.9,319.6 160.5,319.6 		"/>
		<g class="st70">
			<g>
				<g>
					<defs>
						<rect id="SVGID_38_" x="198.5" y="448.7" width="0" height="2.5"/>
					</defs>
					<clipPath id="SVGID_39_">
						<use xlink:href="#SVGID_38_"  style="overflow:visible;"/>
					</clipPath>
					<path class="st80" d="M198.6,448.7v2.5l0,0V448.7C198.5,448.7,198.6,448.7,198.6,448.7"/>
				</g>
			</g>
		</g>
		<polygon class="st81" points="139.8,450.8 139.8,448.3 139.8,448.3 139.9,450.8 		"/>
		<path class="st82" d="M259.1,360.1l0.2-0.2l15.1-8.7c3.9-3.7-3.1-22.4-8.3-13.3l-11.8,14.2l-0.2,0.1L259.1,360.1z"/>
		<path class="st82" d="M124.1,428.7l9.2,1.7v0.1l2.3,18.3c3.1,10-15.4,2.3-15.4-3L124.1,428.7L124.1,428.7z"/>
		<path class="st83" d="M189.9,440.4v-2.5c4.7-0.6,7.4-1.3,8.7-1.7v12.4C193.8,448.6,189.9,445,189.9,440.4"/>
		<path class="st83" d="M178.4,438.8c3.5-0.1,6.4-0.3,8.9-0.5v2.2c0,5.9,5,10.7,11.3,10.7l-2.1,57.1l-0.3,42.3l-0.3,16.6
			c0,0-17.4,3.3-18.3,2.1s-2.7-59-2.7-59l-5-54l1.4-24C173.9,434.7,178.4,438.8,178.4,438.8"/>
		<path class="st84" d="M187.3,440.5v-2.2c0.9-0.1,1.8-0.2,2.6-0.3v2.5c0,4.5,3.9,8.2,8.7,8.2v2.5
			C192.3,451.2,187.3,446.4,187.3,440.5"/>
		<path class="st83" d="M165.8,433.2l1.8,23.2l-7,52.6c0,0,0.1,58.6-0.7,59.8c-0.9,1.2-20,0.9-20,0.9l-0.2-19.9l0.3-0.1l-1.1-40.8
			l1-58c6.2,0,10.1-4.8,10.1-10.7v-1.8l-2.6-0.3v2c0,4.5-2.7,8.2-7.5,8.2v-11.5c5.8,1.3,18.5,2,18.5,2L165.8,433.2z"/>
		<path class="st84" d="M147.3,440.1v-2l2.6,0.3v1.8c0,5.9-3.9,10.7-10.1,10.7v-2.5C144.6,448.3,147.3,444.6,147.3,440.1"/>
		<path class="st84" d="M166.1,433l3.2-2.4h0.1c0.1,0.1,0.7,0.6,1.6,1.4c0.1,0.1,0.2,0.2,0.3,0.2l-1.4,24h-2.3l-1.8-23.2H166.1z"/>
		<path class="st85" d="M187.3,438.1l2.6-0.2C189,438,188.2,438,187.3,438.1L187.3,438.1z"/>
		<path class="st85" d="M253.9,351.2l-31.1,21.1c-6.2,6.1-7.4,18.2-6.4,24c3.9-2.2,18.1-12,23.8-17.9l19.8-17.9L253.9,351.2"/>
		<path class="st85" d="M124.5,395.6c-0.7-12,1.9-20,2.9-22.7c0.2-0.6,0.3-1.2,0.4-1.8c3.7-32.3,3.4-39,23.8-46.3l-0.4,0.7l13.6,9.1
			l4.9-6.9c0-0.1,0.1-0.1,0.1-0.1l5,7l14.3-9.1l-0.5-0.8c19.8,6.3,16.8,13.7,28,47c0.2,0.6,0.9,3.6,6.1,0.9
			c-5,3.2-4.6,23.6-6.3,23.8c-11.6,2.3-17.6-24.8-17.6-24.8l-0.2,29l1,35.4c0,0-0.3,0.1-1,0.4c-1.3,0.4-4,1.1-8.7,1.7
			c-0.8,0.1-1.7,0.2-2.6,0.3c-2.5,0.2-5.4,0.4-8.9,0.5c0,0-4.5-4.1-7.2-6.5c-0.1-0.1-0.2-0.2-0.3-0.2c-0.9-0.8-1.5-1.3-1.6-1.4l0,0
			l0,0l-3.2,2.4l-0.2,0.2l-7.5,5.6c0,0-12.7-0.7-18.5-2c-0.1,0-0.2,0-0.3-0.1l1.9-36.2l1.6-29.6l-9.8,59.4l-9.2-1.7l-0.5-5.6
			L124.5,395.6z"/>
		<polygon class="st86" points="188.6,324.7 189.1,325.5 174.8,334.5 169.8,327.5 187.5,319.6 		"/>
		<polygon class="st86" points="151.6,324.7 152.8,319.6 169.8,327.5 169.7,327.6 164.8,334.5 151.2,325.4 		"/>
		<polygon class="st82" points="161.8,323.8 169.8,327.5 179.2,323.3 182.2,309.9 158.3,309.9 		"/>
		<path class="st87" d="M174.4,331.5c0,0.5,0.4,0.9,0.9,0.9s0.9-0.4,0.9-0.9s-0.4-0.9-0.9-0.9C174.8,330.6,174.4,331,174.4,331.5"/>
		<path class="st87" d="M163.3,331.5c0,0.5,0.4,0.9,0.9,0.9s0.9-0.4,0.9-0.9s-0.4-0.9-0.9-0.9S163.3,331,163.3,331.5"/>
		<path class="st87" d="M169.3,337.9c0,0.5,0.4,0.9,0.9,0.9s0.9-0.4,0.9-0.9s-0.4-0.9-0.9-0.9S169.3,337.4,169.3,337.9"/>
		<path class="st87" d="M169.3,348.2c0,0.5,0.4,0.9,0.9,0.9s0.9-0.4,0.9-0.9s-0.4-0.9-0.9-0.9S169.3,347.7,169.3,348.2"/>
		<path class="st87" d="M169.3,358.5c0,0.5,0.4,0.9,0.9,0.9s0.9-0.4,0.9-0.9s-0.4-0.9-0.9-0.9S169.3,358,169.3,358.5"/>
		<path class="st87" d="M169.3,368.9c0,0.5,0.4,0.9,0.9,0.9s0.9-0.4,0.9-0.9s-0.4-0.9-0.9-0.9S169.3,368.3,169.3,368.9"/>
		<path class="st87" d="M169.3,379.2c0,0.5,0.4,0.9,0.9,0.9s0.9-0.4,0.9-0.9s-0.4-0.9-0.9-0.9S169.3,378.7,169.3,379.2"/>
		<path class="st87" d="M169.3,389.5c0,0.5,0.4,0.9,0.9,0.9s0.9-0.4,0.9-0.9s-0.4-0.9-0.9-0.9S169.3,389,169.3,389.5"/>
		<path class="st87" d="M169.3,399.8c0,0.5,0.4,0.9,0.9,0.9s0.9-0.4,0.9-0.9s-0.4-0.9-0.9-0.9S169.3,399.3,169.3,399.8"/>
		<path class="st87" d="M169.3,410.2c0,0.5,0.4,0.9,0.9,0.9s0.9-0.4,0.9-0.9s-0.4-0.9-0.9-0.9S169.3,409.7,169.3,410.2"/>
		<path class="st87" d="M169.3,420.5c0,0.5,0.4,0.9,0.9,0.9s0.9-0.4,0.9-0.9s-0.4-0.9-0.9-0.9S169.3,420,169.3,420.5"/>
		<path class="st87" d="M252.3,355.1c0.5-0.5,1.3-0.4,1.8,0.1s0.4,1.3-0.1,1.8s-1.3,0.4-1.8-0.1
			C251.8,356.3,251.8,355.6,252.3,355.1"/>
		<path class="st87" d="M130,427c0,0.7,0.6,1.2,1.2,1.2c0.7,0,1.2-0.6,1.2-1.2c0-0.7-0.6-1.2-1.2-1.2C130.5,425.7,130,426.3,130,427
			"/>
		<polygon class="st86" points="145.5,351.5 145.5,366.1 153.2,370.5 160.9,366.1 160.9,351.5 		"/>
		<path class="st88" d="M171.6,319.6c3.1,0,5.6-0.3,7.7-0.9c-2.2,2.4-5.5,3.9-9.3,3.9c-2.8,0-5.4-0.9-7.4-2.3l0.2-1.4
			C167.5,320.1,171.6,319.6,171.6,319.6"/>
		<path class="st82" d="M141.5,291c0,16,13,28.9,28.9,28.9c16,0,28.9-13,28.9-28.9c0-16-13-28.9-28.9-28.9
			C154.4,262.1,141.5,275,141.5,291"/>
		<path class="st42" d="M179.4,293c0,2.3,1.8,4.1,4.1,4.1s4.1-1.8,4.1-4.1c0-2.3-1.8-4.1-4.1-4.1S179.4,290.7,179.4,293"/>
		<g class="st89">
			<g>
				<g>
					<defs>
						<rect id="SVGID_40_" x="181.3" y="294.3" width="3.5" height="1.8"/>
					</defs>
					<clipPath id="SVGID_41_">
						<use xlink:href="#SVGID_40_"  style="overflow:visible;"/>
					</clipPath>
					<path class="st90" d="M181.3,295.2c0-0.5,0.8-0.9,1.8-0.9s1.8,0.4,1.8,0.9s-0.8,0.9-1.8,0.9C182.1,296,181.3,295.7,181.3,295.2
						"/>
				</g>
			</g>
		</g>
		<path class="st42" d="M154.5,293c0,2.3,1.8,4.1,4.1,4.1s4.1-1.8,4.1-4.1c0-2.3-1.8-4.1-4.1-4.1S154.5,290.7,154.5,293"/>
		<g class="st89">
			<g>
				<g>
					<defs>
						<rect id="SVGID_42_" x="156.4" y="294.3" width="3.5" height="1.8"/>
					</defs>
					<clipPath id="SVGID_43_">
						<use xlink:href="#SVGID_42_"  style="overflow:visible;"/>
					</clipPath>
					<path class="st91" d="M156.4,295.2c0-0.5,0.8-0.9,1.8-0.9s1.8,0.4,1.8,0.9s-0.8,0.9-1.8,0.9C157.2,296,156.4,295.7,156.4,295.2
						"/>
				</g>
			</g>
		</g>
		<path class="st92" d="M143.5,273.3c2-2,6.3-3.4,6.3-3.4"/>
		<path class="st48" d="M198.3,296.8c0,0-6.3-9.1-7.4-11.9s-0.3-5.7-0.3-5.7l-2.5,1.4c0,0-2.2,1.1-3.1,1s-12.3,0.8-16,0.6
			c-3.7-0.2-18-2.3-18.6-2.7c-0.6-0.3-3-1.6-4,0.1c-0.7,1.2-1.7,3-1.9,6.3c-0.1,2.1-0.4,6.7-0.4,6.7L141,293c0,0-2.3-27.7,0.6-30.9
			c3-3.2,13.5-10.2,26.6-9.4s20.5,6.5,20.5,6.5s6.4,1.3,8.4,3C199.3,263.8,202.2,278.9,198.3,296.8"/>
		<g class="st93">
			<g>
				<g>
					<defs>
						<rect id="SVGID_44_" x="144.6" y="255.1" width="21.1" height="11.5"/>
					</defs>
					<clipPath id="SVGID_45_">
						<use xlink:href="#SVGID_44_"  style="overflow:visible;"/>
					</clipPath>
					<path class="st94" d="M165.6,255.3c0,0-8.6-1.3-14.3,2.7c-5.7,4-6.8,8.6-6.8,8.6S159.4,255.3,165.6,255.3"/>
				</g>
			</g>
		</g>
		<g class="st93">
			<g>
				<g>
					<defs>
						<rect id="SVGID_46_" x="159.1" y="269.3" width="24.3" height="8.6"/>
					</defs>
					<clipPath id="SVGID_47_">
						<use xlink:href="#SVGID_46_"  style="overflow:visible;"/>
					</clipPath>
					<path class="st95" d="M159.1,276.5c0,0,8.6,3.2,15.4,0.3c6.8-2.9,8.9-7.5,8.9-7.5S165.6,277.8,159.1,276.5"/>
				</g>
			</g>
		</g>
		<path class="st60" d="M158.4,362.7h4.7l0.4-3.1c0-0.3,0.3-0.6,0.6-0.6h11c0.3,0,0.6,0.6,0.6,0.6l0.4,3.1h4.6
			c0.9,0,1.7,0.7,1.7,1.7v14.2c0,0.9-0.7,1.7-1.7,1.7h-22.3c-0.9,0-1.7-0.7-1.7-1.7v-14.2C156.8,363.5,157.5,362.7,158.4,362.7"/>
		<path class="st96" d="M163.9,371.3c0,3.1,2.5,5.7,5.7,5.7c3.1,0,5.7-2.5,5.7-5.7c0-3.1-2.5-5.7-5.7-5.7S163.9,368.1,163.9,371.3"
			/>
		<g>
			<g>
				<defs>
					<path id="SVGID_48_" d="M167.7,364.8c-2.2-2.2-5.8-2.3-8.1,0c-2.2,2.2-2.3,5.8,0,8.1c2.2,2.2,5.8,2.3,8.1,0
						S169.9,367,167.7,364.8"/>
				</defs>
				<clipPath id="SVGID_49_">
					<use xlink:href="#SVGID_48_"  style="overflow:visible;"/>
				</clipPath>
				
					<rect x="166.8" y="362.3" transform="matrix(0.7071 -0.7071 0.7071 0.7071 -211.8313 226.1884)" class="st97" width="0.7" height="12.9"/>
			</g>
			<g>
				<defs>
					<path id="SVGID_50_" d="M164.5,365.2c-2.2-2.2-5.8-2.3-8.1,0c-2.2,2.2-2.3,5.8,0,8.1c2.2,2.2,5.8,2.3,8.1,0
						S166.8,367.4,164.5,365.2"/>
				</defs>
				<clipPath id="SVGID_51_">
					<use xlink:href="#SVGID_50_"  style="overflow:visible;"/>
				</clipPath>
				
					<rect x="165.3" y="363.4" transform="matrix(0.7071 -0.7071 0.7071 0.7071 -211.9889 224.9082)" class="st98" width="0.3" height="9.9"/>
			</g>
		</g>
		<path class="st99" d="M163.9,371.3c0,3.1,2.5,5.7,5.7,5.7c3.1,0,5.7-2.5,5.7-5.7c0-3.1-2.5-5.7-5.7-5.7S163.9,368.1,163.9,371.3
			 M165.3,371.3c0-2.4,1.9-4.3,4.3-4.3s4.3,1.9,4.3,4.3s-1.9,4.3-4.3,4.3C167.2,375.5,165.3,373.6,165.3,371.3"/>
		<path class="st100" d="M164.6,362.3h2.7c0.2,0,0.3-0.1,0.3-0.3v-1.3c0-0.2-0.1-0.3-0.3-0.3h-2.7c-0.2,0-0.3,0.1-0.3,0.3v1.3
			C164.3,362.1,164.5,362.3,164.6,362.3"/>
		<path class="st99" d="M187.4,326.2c-0.4,12.9-3.8,25.7-11,36.4h1.4c0,0,10.8-13.2,10.8-37.2L187.4,326.2z"/>
		<path class="st99" d="M152.4,326.2c0.4,12.9,3.8,25.7,11,36.4H162c0,0-10.8-13.2-10.8-37.2L152.4,326.2z"/>
		<g class="st23">
			<g>
				<path class="st101" d="M82.6,231.9c-10.5-11.1-20.3-18.9-24.1-15.1c-4.2,4.2,2.4,13,14.2,24.3l-11.1,42.7l4.9,1.3l6.4-10.6
					c0.9,0.7,2,1.4,3.1,1.9l1.3-1.3c0,0-0.7-1.8-2.4-4l6-10c1.1,0.9,2.3,1.7,3.7,2.4l1.3-1.3c0,0-0.8-2.2-2.9-4.5l2.8-4.6
					c7.4,6.2,15.6,12.9,24.1,19.6l0.2,14.4l2.5,1.4l3.9-11.1l1.7-1.7c0,0,0-0.1-0.1-0.1l11.4-4l-1.4-2.5l-15-0.2
					c-4.5-5.9-11.5-14.9-19-23.8l5.1-3.1c2.3,1.9,4.3,2.7,4.3,2.7l1.3-1.3c-0.6-1.3-1.4-2.4-2.2-3.4l10.1-6.1c2,1.6,3.7,2.2,3.7,2.2
					l1.3-1.3c-0.5-1-1.1-2-1.7-2.9l9.5-5.7l-1.3-4.9L82.6,231.9z"/>
				
					<rect x="89" y="274.5" transform="matrix(0.7071 -0.7071 0.7071 0.7071 -175.5927 147.2542)" class="st101" width="2" height="22.2"/>
				
					<rect x="91.7" y="265.8" transform="matrix(0.7071 -0.7071 0.7071 0.7071 -167.442 146.122)" class="st101" width="2" height="18.8"/>
				
					<rect x="125.2" y="238.3" transform="matrix(0.7071 -0.7071 0.7071 0.7071 -139.4041 162.3188)" class="st101" width="2" height="22.2"/>
				
					<rect x="114.8" y="242.6" transform="matrix(0.7069 -0.7073 0.7073 0.7069 -144.309 155.8001)" class="st101" width="2" height="18.8"/>
			</g>
		</g>
		<path class="st102" d="M85.1,228.1C74.6,217,64.8,209.2,61,213c-4.2,4.2,2.4,13,14.2,24.3L64.1,280l4.9,1.3l6.4-10.6
			c0.9,0.7,2,1.4,3.1,1.9l1.3-1.3c0,0-0.7-1.8-2.4-4l6-10c1.1,0.9,2.3,1.7,3.7,2.4l1.3-1.3c0,0-0.8-2.2-2.9-4.5l2.8-4.6
			c7.4,6.2,15.6,12.9,24.1,19.6l0.2,14.4l2.5,1.4l3.9-11.1l1.7-1.7c0,0,0-0.1-0.1-0.1l11.4-4l-1.4-2.5l-15-0.2
			c-4.5-5.9-11.5-14.9-19-23.8l5.1-3.1c2.3,1.9,4.3,2.7,4.3,2.7l1.3-1.3c-0.6-1.3-1.4-2.4-2.2-3.4l10.1-6.1c2,1.6,3.7,2.2,3.7,2.2
			l1.3-1.3c-0.5-1-1.1-2-1.7-2.9l9.5-5.7l-1.3-4.9L85.1,228.1z"/>
		
			<rect x="91.5" y="270.6" transform="matrix(0.7073 -0.7069 0.7069 0.7073 -172.0831 147.868)" class="st102" width="2" height="22.2"/>
		
			<rect x="94.2" y="262" transform="matrix(0.7071 -0.7071 0.7071 0.7071 -164.0269 146.7778)" class="st102" width="2" height="18.8"/>
		
			<rect x="127.7" y="234.4" transform="matrix(0.7069 -0.7073 0.7073 0.7069 -135.8989 163.0035)" class="st102" width="2" height="22.2"/>
		
			<rect x="117.4" y="238.8" transform="matrix(0.7071 -0.7071 0.7071 0.7071 -140.8087 156.4173)" class="st102" width="2" height="18.8"/>
		<g class="st37">
			<g>
				<path class="st103" d="M382.6,342.4H442c3.2,0,5.9,2.6,5.9,5.9v35.3c0,3.2-2.6,5.9-5.9,5.9h-32.4l-14.1,12.2v-12.2h-12.9
					c-3.2,0-5.9-2.6-5.9-5.9v-35.3C376.7,345,379.4,342.4,382.6,342.4"/>
			</g>
		</g>
		<path class="st104" d="M379.3,340.1h59.4c3.2,0,5.9,2.6,5.9,5.9v35.3c0,3.2-2.6,5.9-5.9,5.9h-32.5l-14.1,12.2v-12.2h-12.8
			c-3.2,0-5.9-2.6-5.9-5.9V346C373.5,342.8,376.1,340.1,379.3,340.1"/>
		<path class="st18" d="M416.2,357.1c-0.9-0.5-2.4-1.5-3.1-2.2c-1.6-1.5-1.7-3.2-1.7-5.5c0-1.1-0.4-2.1-1.2-2.8
			c-0.8-0.7-1.8-1.1-2.9-1.1c-2.3,0-4.1,1.8-4.1,4c0,1.8,0.2,3.6,0.6,5.4l-8.9,0.1c-2.1,0-3.8,1.7-3.8,3.7c0,1.1,0.5,2.2,1.5,2.8
			c0,0,0,0.1-0.1,0.1c-0.9,1.8-0.2,4,1.7,4.9c-0.6,1.7,0.1,3.6,1.7,4.4c-0.2,0.4-0.3,0.9-0.3,1.4c0,2,1.7,3.6,3.9,3.6l11.3-0.2
			c3,0,4.7-1.1,5.7-2.4"/>
		<path class="st105" d="M416.4,373.5c0.2,1.2,1.2,2,2.5,2l7.4-0.1l-0.1-18.5l-9.9,0.1v0.1"/>
		<path class="st18" d="M418,371.9c0.1-1,1-1.7,2.1-1.6c0.8,0.1,1.5,0.7,1.6,1.5c0.1,1-0.6,1.9-1.6,2s-1.9-0.5-2.1-1.5
			C418,372.2,418,372,418,371.9"/>
		<g class="st37">
			<g>
				<path class="st103" d="M266,249.7h-46.8c-2.5,0-4.6,2.1-4.6,4.6V282c0,2.5,2.1,4.6,4.6,4.6h25.6l11.1,9.6v-9.6H266
					c2.5,0,4.6-2.1,4.6-4.6v-27.7C270.6,251.7,268.5,249.7,266,249.7"/>
			</g>
		</g>
		<path class="st60" d="M263.1,246.8h-46.8c-2.5,0-4.6,2.1-4.6,4.6v27.7c0,2.5,2.1,4.6,4.6,4.6h25.6l11.1,9.6v-9.6h10.1
			c2.5,0,4.6-2.1,4.6-4.6v-27.7C267.7,248.8,265.6,246.8,263.1,246.8"/>
		<path class="st18" d="M227.5,255.6c2.9-2.9,7.7-2.9,10.6,0l1.5,1.5l1.5-1.5c2.9-2.9,7.7-2.9,10.6,0s2.9,7.7,0,10.6l-1.5,1.5
			l-10.6,10.6L229,267.7l-1.5-1.5C224.6,263.3,224.6,258.5,227.5,255.6"/>
	</g>
</g>
</svg>
